<svg xmlns="http://www.w3.org/2000/svg" width="15" height="27.7" viewBox="0 0 15 27.7"><path d="M11.7 5.2c1 0 2 0 2.7-.3.4-.8.6-1.9.6-3-.2 0-.1-.3-.2-.4 0-.2-.3-.2-.3-.4-.3-.2-.5-.4-.7-.6-.8-.2-1.5-.3-2.2-.5-.8 0-1.9-.1-2.6.1-2.6 0-4 1.1-5.3 2.4 0 .1 0 .2-.1.2-.6 1.6-.1 3.6-.2 5.6.1.4.1 1 .2 1.4-1 .3-2.2.4-3.4.5-.3.3-.2 1.1-.2 1.7.1.6.3 1.1.4 1.6.2.2.6.4.8.5.1 0 .1.1.1.1.5.3 1.5 0 2.3.1-.1 2 .3 3.9 0 5.7 0 .3.3.4.2.8 0 1-.1 2 .2 2.7-.3.5-.5 1-.4 1.8.1 0 .1.2.1.3-.1.5.6.2.5.7.2.5-.4.2-.4.5v.9c.5.3 1.5.2 2.3.2.9-.4 2.2-.5 2.8-1.2.5.2.9 0 1.2-.2 0-.3.3-.3.2-.7 0-.3-.2-.5-.1-.9v-2.9c-.2-2.3 0-4.9-.3-7.2.9-.1 1.9-.1 2.6-.4.4-.5.4-1.2.5-1.9.2-.2.2-.6.2-1 .2-.2.1-.7.1-1.1-.1-.6-.2-1.3-.8-1.4-.9-.2-2 .6-3 .3 0-1.1-.3-2.3 0-3.4.7-.2 1.4-.4 2.2-.6zM7.8 10c.1.3.3.5.4.7.1 0 .2 0 .2.1 1.2.1 2.2-.1 3.1-.3 0 1-.3 1.7-.5 2.5-.7 0-1.5.3-2 .2-.3.2-.4.5-.6.7 0 .4.1.5 0 .8-.2.1-.1.6-.2.8V17c.1.3-.1.3-.1.5V21c-.1.3.1.3.1.5v3c.1.3-.1.8.1.9-.1.4-.4 0-.8.1-.5 0-.9.3-1.5.3.1-.4.3-.6.3-1.1 0-.4-.4-.3-.5-.5.2-.6.6-1.1.7-1.8.2-.5.7-1.3.3-1.8-.5-.1-.5.3-.8.4 0 .1 0 .2-.1.2 0 .1 0 .2-.1.2 0 .1-.2.1 0 0 0-.1 0-.2.1-.2 0-.1 0-.2.1-.2v-.3c.4-.6.7-1.2.8-2 .2-.3.3-.7.4-1 .2-.3.3-.9.1-1.2-.5 0-.8.3-.9.7-.3-.2.2-.4.1-.7.1-.2.2-.6.3-.8.2-.4.6-1.3 0-1.6-.4 0-.6.2-.7.5-.2.2-.4.4-.5.7-.4-.1-.1-.7-.2-1.1-.1-.5.1-.9 0-1.2-.6-.8-2-.1-3.2-.3-.1-.3-.2-1-.1-1.2 1-.1 2.5.2 3.2-.2 0-.1 0-.2.1-.2.1-.7-.3-1-.5-1.4.2-.8 0-2 .1-3 .2-.1.3-.4.5-.6.1-1 .7-1.5.7-2.5-.3 0-.6-.1-.6.2-.3 0-.4.6-.5.3-.1-.5.2-.6.3-1l1.8-1.2c1.7-.2 4.6-.4 6.1.2.1.6-.3.9-.2 1.5h-1.5c-1.1.2-2 .7-3 1-.3.1-.3.3-.5.4 0 .4-.2.6-.3 1-.1 1.4.1 2.6 0 4z"/></svg>