<svg xmlns="http://www.w3.org/2000/svg" width="23" height="19.7" viewBox="0 0 23 19.7"><path d="M23 4c-.2-.4-.9-.3-1.4-.4h-1.1c.1-.3.3-.6.5-.9.1-.4.2-.7.2-1.2l.3-.6c.1-.1.2-.5.1-.7-.1-.2-.3-.2-.6-.2-.1 0-.2.1-.2.1-.4.4-.8 1-1.2 1.4h-.1c-.1 0 0 0-.1.1s-.3.1-.4.2c-.3.2-.5.4-.9.5-.5-.2-1.1-.3-1.7-.3-1.1.1-2.3.2-3 .7-.9.3-1.4 1-2.1 1.6 0 .3-.3.4-.4.7 0 0 0 .1-.1.1 0 .2 0 .3-.1.5 0 .1.2.4 0 .5-.7-.1-1.4-.6-2-.9-.7-.4-1.5-.6-2.1-1.1-.7-.3-1.2-.8-1.7-1.3-.2-.3-.5-.5-.7-.9-.3-.2-.1-.9-.7-.9-.3 0-.3.2-.4.4-.1.2-.4.2-.4.5 0 0 0 .1-.1.1-.1 1-.5 1.9-.5 3.2.1.4.3.7.6 1-.4 0-.7.2-.9.5 0 1 .4 1.6.8 2.2.1.4.3.7.6.9 0 .2.2.3.3.4 0 .1.1.1.1.2s.3.2.1.2c-.4.1-1 .1-1.2.4-.1.3-.1.8 0 1.1 0 .2.3.3.3.5.5.4 1.1.7 1.6 1.1.6.2 1.2.3 1.8.4-.1.3-.3.5-.6.7-.8.4-1.8.5-2.7.7-.5 0-.9.2-1.5.2-.4.2-.9.2-1.1.3l-.2.2c-.1.4.1.7.4.9 0 .2.2.3.4.4.1.2.2.3.4.4.5.5 1.2.7 1.9 1.1.8.2 1.6.4 2.5.5.9.1 1.9.1 2.8.2h.9c.5.1 1.2.1 1.8.1.1-.1.3-.1.5-.1.5-.3 1.2-.4 1.6-.7.6-.2 1-.6 1.5-.9.8-.7 1.9-1.3 2.5-2.3.2-.2.3-.4.4-.7.3-.2.4-.4.6-.7.4-.4.7-.9 1-1.4l.9-1.5c0-.4.3-.5.3-.9.2-.2.2-.6.4-.9 0-.2 0-.4.1-.6 0-1.3 0-2.4-.3-3.3.6-.2 1.2-.3 1.6-.6.4-.1.8-.5.7-1.2zm-3.4 4c-.1.8-.6 1.4-1 2 .1.4-.1.5-.1.9-.2.3-.3.6-.4 1-.2.3-.3.6-.5.9l-1.2 1.5c-.4.5-.9.9-1.3 1.4-.4.5-.9.9-1.4 1.3-.5.2-.9.4-1.2.7-.2.1-.5.2-.7.3-.2.1-.5.1-.7.3-1.1.1-2.3.2-3.5.1-1-.1-2.1-.2-3-.4-.9-.2-1.5-.7-2.2-1 .1-.2.6-.2.9-.2 0-.2.4 0 .4-.1.3.1.3-.1.5-.1.8-.3 1.5-.4 1.9-.6.3-.1.4-.4.7-.6 0-.2.1-.3.2-.4 0-.3.2-.4.1-.8.1-.2.3-.3.3-.7-.1-.1-.1-.3-.3-.4 0-.2-.4-.1-.4-.2-.2 0-.4 0-.6-.1-.2 0-.5.1-.5-.1-.8 0-1.3-.4-1.8-.7.4-.3 1-.3 1.3-.7.5-.1 1-.1 1.1-.7 0-.7-.8-.6-1.3-.8-.8-.6-1.2-1.6-1.7-2.4.2-.1.5-.2.7-.4.4 0 .5-.3.6-.5.1-.5-.3-.6-.5-.8-.3-.2-.5-.5-.7-.8 0-.8 0-1.6.1-2.3.1 0 .1 0 .1.1.2.4.5.7.7 1.2.5.3.9.8 1.5 1.1.4.4 1.1.6 1.5 1 .7.2 1.2.5 1.8.8.7.2 1 .7 2 .6l.6-.3c.3-.4-.1-1.1.1-1.6.2-.6.8-1 1.2-1.4.3-.2.5-.3.8-.5.3-.1.7-.2.9-.4.4 0 .7-.1 1-.1h1.2c.2.1.5.1.7.1.2.1.4.3.7.4.8.7 1.2 1.7 1.4 3-.1.4.1.8 0 1.4zm.3-5.5c-.1.3-.2.7-.6.8 0-.1-.1-.1-.1-.2 0-.2.2-.2.3-.3.1-.1.2-.3.4-.3 0-.1.1-.1 0 0zm-5.4 2.9c.2.1.3.3.5.4.1.2.3.3.6.4.1-.2.4-.1.4-.2.2 0 .2-.2.3-.3 0-.5-.1-1-.4-1.3-.7-.5-1.6 0-1.4 1z"/></svg>