<svg version="1.1" xmlns="http://www.w3.org/2000/svg" width="62" height="62" viewBox="0 0 62 62"><path fill="#149080" d="M1,44.9l27.4,15.9V37.5L1,21.5V44.9z M52.3,13.6v2.5c0,1.8-3.5,3.3-7.7,3.3c-4.3,0-7.7-1.5-7.7-3.3V12l0,0 c0.3,1.7,3.6,3.1,7.7,3.1c4.3,0,7.7-1.5,7.7-3.3s-3.5-3.3-7.7-3.3c-0.3,0-0.7,0-1,0l-5-2.9v3.1c0,1.8-3.5,3.3-7.7,3.3 c-2.7,0-5-0.6-6.4-1.5c-0.2-0.1-0.5-0.3-0.8-0.5c-0.4-0.4-0.6-0.8-0.6-1.2v-3l-4.8,2.8c-0.3,0-0.7,0-1.1,0c-4.3,0-7.7,1.5-7.7,3.3 s3.5,3.3,7.7,3.3c4.1,0,7.4-1.4,7.7-3.1l0,0v4.1c0,1.8-3.5,3.3-7.7,3.3c-4.3,0-7.7-1.5-7.7-3.3v-2.4l-6,3.5l27.5,16l27.5-16.1 L52.3,13.6z M38.7,23.8c0,1.8-3.5,3.3-7.7,3.3c-4.3,0-7.7-1.5-7.7-3.3v-4.1l0,0c0.3,1.7,3.6,3.1,7.7,3.1s7.4-1.4,7.7-3.1l0,0V23.8 L38.7,23.8z M33.6,37.7v23.1L61,44.9V21.7L33.6,37.7z M30.9,7.8c4.3,0,7.7-1.5,7.7-3.3s-3.5-3.3-7.7-3.3c-4.3,0-7.7,1.5-7.7,3.3 C23.2,6.3,26.6,7.8,30.9,7.8"/></svg>
