<svg version="1.1" xmlns="http://www.w3.org/2000/svg" width="60" height="59.6" viewBox="0 0 60 59.6"><path fill="#35a999" d="M0,43.7l27.4,15.9V36.3L0,20.3V43.7z M51.3,12.4v2.5c0,1.8-3.5,3.3-7.7,3.3c-4.3,0-7.7-1.5-7.7-3.3v-4.1h0 c0.3,1.7,3.6,3.1,7.7,3.1c4.3,0,7.7-1.5,7.7-3.3c0-1.8-3.5-3.3-7.7-3.3c-0.3,0-0.7,0-1,0l-5-2.9v3.1c0,1.8-3.5,3.3-7.7,3.3 c-2.7,0-5-0.6-6.4-1.5C23.3,9.2,23,9,22.7,8.8c-0.4-0.4-0.6-0.8-0.6-1.2v-3l-4.8,2.8c-0.3,0-0.7,0-1.1,0c-4.3,0-7.7,1.5-7.7,3.3 c0,1.8,3.5,3.3,7.7,3.3c4.1,0,7.4-1.4,7.7-3.1h0v4.1c0,1.8-3.5,3.3-7.7,3.3c-4.3,0-7.7-1.5-7.7-3.3v-2.4l-6,3.5l27.5,16L57.5,16 L51.3,12.4z M37.7,22.6c0,1.8-3.5,3.3-7.7,3.3c-4.3,0-7.7-1.5-7.7-3.3v-4.1h0c0.3,1.7,3.6,3.1,7.7,3.1c4.1,0,7.4-1.4,7.7-3.1h0 L37.7,22.6L37.7,22.6z M32.6,36.5v23.1L60,43.7V20.5L32.6,36.5z M29.9,6.6c4.3,0,7.7-1.5,7.7-3.3c0-1.8-3.5-3.3-7.7-3.3 c-4.3,0-7.7,1.5-7.7,3.3C22.2,5.1,25.6,6.6,29.9,6.6"/></svg>
