<svg version="1.1" xmlns="http://www.w3.org/2000/svg" width="23" height="19.7" viewBox="0 0 23 19.7"><path fill="#221f1f" d="M23,4c-0.2-0.4-0.9-0.3-1.4-0.4h-1.1C20.6,3.3,20.8,3,21,2.7c0.1-0.4,0.2-0.7,0.2-1.2c0.1-0.2,0.2-0.4,0.3-0.6	c0.1-0.1,0.2-0.5,0.1-0.7C21.5,0,21.3,0,21,0c-0.1,0-0.2,0.1-0.2,0.1c-0.4,0.4-0.8,1-1.2,1.4c0,0-0.1,0-0.1,0c-0.1,0,0,0-0.1,0.1 c-0.1,0.1-0.3,0.1-0.4,0.2c-0.3,0.2-0.5,0.4-0.9,0.5C17.6,2.1,17,2,16.4,2c-1.1,0.1-2.3,0.2-3,0.7c-0.9,0.3-1.4,1-2.1,1.6 c0,0.3-0.3,0.4-0.4,0.7c0,0,0,0.1-0.1,0.1c0,0.2,0,0.3-0.1,0.5c0,0.1,0.2,0.4,0,0.5C10,6,9.3,5.5,8.7,5.2C8,4.8,7.2,4.6,6.6,4.1 C5.9,3.8,5.4,3.3,4.9,2.8C4.7,2.5,4.4,2.3,4.2,1.9C3.9,1.7,4.1,1,3.5,1C3.2,1,3.2,1.2,3.1,1.4C3,1.6,2.7,1.6,2.7,1.9 c0,0,0,0.1-0.1,0.1C2.5,3,2.1,3.9,2.1,5.2c0.1,0.4,0.3,0.7,0.6,1C2.3,6.2,2,6.4,1.8,6.7C1.8,7.7,2.2,8.3,2.6,8.9 c0.1,0.4,0.3,0.7,0.6,0.9c0,0.2,0.2,0.3,0.3,0.4c0,0.1,0.1,0.1,0.1,0.2c0,0.1,0.3,0.2,0.1,0.2c-0.4,0.1-1,0.1-1.2,0.4 c-0.1,0.3-0.1,0.8,0,1.1c0,0.2,0.3,0.3,0.3,0.5c0.5,0.4,1.1,0.7,1.6,1.1c0.6,0.2,1.2,0.3,1.8,0.4c-0.1,0.3-0.3,0.5-0.6,0.7 c-0.8,0.4-1.8,0.5-2.7,0.7c-0.5,0-0.9,0.2-1.5,0.2C1,15.9,0.5,15.9,0.3,16c-0.1,0.1-0.1,0.1-0.2,0.2c-0.1,0.4,0.1,0.7,0.4,0.9 c0,0.2,0.2,0.3,0.4,0.4c0.1,0.2,0.2,0.3,0.4,0.4c0.5,0.5,1.2,0.7,1.9,1.1c0.8,0.2,1.6,0.4,2.5,0.5c0.9,0.1,1.9,0.1,2.8,0.2h0.9 c0.5,0.1,1.2,0.1,1.8,0.1c0.1-0.1,0.3-0.1,0.5-0.1c0.5-0.3,1.2-0.4,1.6-0.7c0.6-0.2,1-0.6,1.5-0.9c0.8-0.7,1.9-1.3,2.5-2.3 c0.2-0.2,0.3-0.4,0.4-0.7c0.3-0.2,0.4-0.4,0.6-0.7c0.4-0.4,0.7-0.9,1-1.4c0.3-0.5,0.6-1,0.9-1.5c0-0.4,0.3-0.5,0.3-0.9 c0.2-0.2,0.2-0.6,0.4-0.9c0-0.2,0-0.4,0.1-0.6c0-1.3,0-2.4-0.3-3.3c0.6-0.2,1.2-0.3,1.6-0.6C22.7,5.1,23.1,4.7,23,4z M19.6,8 c-0.1,0.8-0.6,1.4-1,2c0.1,0.4-0.1,0.5-0.1,0.9c-0.2,0.3-0.3,0.6-0.4,1c-0.2,0.3-0.3,0.6-0.5,0.9c-0.4,0.5-0.8,1-1.2,1.5 c-0.4,0.5-0.9,0.9-1.3,1.4c-0.4,0.5-0.9,0.9-1.4,1.3c-0.5,0.2-0.9,0.4-1.2,0.7c-0.2,0.1-0.5,0.2-0.7,0.3c-0.2,0.1-0.5,0.1-0.7,0.3 c-1.1,0.1-2.3,0.2-3.5,0.1c-1-0.1-2.1-0.2-3-0.4c-0.9-0.2-1.5-0.7-2.2-1c0.1-0.2,0.6-0.2,0.9-0.2c0-0.2,0.4,0,0.4-0.1 c0.3,0.1,0.3-0.1,0.5-0.1C5,16.3,5.7,16.2,6.1,16c0.3-0.1,0.4-0.4,0.7-0.6c0-0.2,0.1-0.3,0.2-0.4c0-0.3,0.2-0.4,0.1-0.8 c0.1-0.2,0.3-0.3,0.3-0.7c-0.1-0.1-0.1-0.3-0.3-0.4c0-0.2-0.4-0.1-0.4-0.2c-0.2,0-0.4,0-0.6-0.1c-0.2,0-0.5,0.1-0.5-0.1 c-0.8,0-1.3-0.4-1.8-0.7c0.4-0.3,1-0.3,1.3-0.7c0.5-0.1,1-0.1,1.1-0.7c0-0.7-0.8-0.6-1.3-0.8C4.1,9.2,3.7,8.2,3.2,7.4 C3.4,7.3,3.7,7.2,3.9,7C4.3,7,4.4,6.7,4.5,6.5C4.6,6,4.2,5.9,4,5.7C3.7,5.5,3.5,5.2,3.3,4.9c0-0.8,0-1.6,0.1-2.3 c0.1,0,0.1,0,0.1,0.1C3.7,3.1,4,3.4,4.2,3.9c0.5,0.3,0.9,0.8,1.5,1.1c0.4,0.4,1.1,0.6,1.5,1C7.9,6.2,8.4,6.5,9,6.8 c0.7,0.2,1,0.7,2,0.6c0.2-0.1,0.4-0.2,0.6-0.3c0.3-0.4-0.1-1.1,0.1-1.6c0.2-0.6,0.8-1,1.2-1.4c0.3-0.2,0.5-0.3,0.8-0.5 c0.3-0.1,0.7-0.2,0.9-0.4c0.4,0,0.7-0.1,1-0.1h1.2c0.2,0.1,0.5,0.1,0.7,0.1c0.2,0.1,0.4,0.3,0.7,0.4c0.8,0.7,1.2,1.7,1.4,3 C19.5,7,19.7,7.4,19.6,8z M19.9,2.5c-0.1,0.3-0.2,0.7-0.6,0.8c0-0.1-0.1-0.1-0.1-0.2c0-0.2,0.2-0.2,0.3-0.3 C19.6,2.7,19.7,2.5,19.9,2.5C19.9,2.4,20,2.4,19.9,2.5z M14.5,5.4c0.2,0.1,0.3,0.3,0.5,0.4c0.1,0.2,0.3,0.3,0.6,0.4 C15.7,6,16,6.1,16,6c0.2,0,0.2-0.2,0.3-0.3c0-0.5-0.1-1-0.4-1.3C15.2,3.9,14.3,4.4,14.5,5.4z"/></svg>
