<svg version="1.1" xmlns="http://www.w3.org/2000/svg" width="32" height="37.3" viewBox="0 0 32 37.3"><path fill="#63d1bb" d="M16,37.3c8.8,0,16-7.2,16-16C23.1,21.3,16,28.5,16,37.3z M4.6,16.4c0,2.5,2,4.4,4.4,4.4c0.9,0,1.8-0.3,2.5-0.8 l0,0.3c0,2.5,2,4.4,4.4,4.4s4.4-2,4.4-4.4l0-0.3c0.7,0.5,1.6,0.8,2.5,0.8c2.5,0,4.4-2,4.4-4.4c0-1.8-1-3.3-2.5-4 c1.5-0.7,2.5-2.2,2.5-4c0-2.5-2-4.4-4.4-4.4c-0.9,0-1.8,0.3-2.5,0.8l0-0.3C20.4,2,18.4,0,16,0s-4.4,2-4.4,4.4l0,0.3 C10.9,4.3,10,4,9.1,4C6.6,4,4.6,6,4.6,8.4c0,1.8,1,3.3,2.5,4C5.7,13.1,4.6,14.7,4.6,16.4z M16,8c2.5,0,4.4,2,4.4,4.4s-2,4.4-4.4,4.4 s-4.4-2-4.4-4.4C11.5,10,13.5,8,16,8z M0,21.3c0,8.8,7.2,16,16,16C16,28.5,8.8,21.3,0,21.3z"/></svg>
