<svg xmlns="http://www.w3.org/2000/svg" width="62" height="62" viewBox="0 0 62 62"><path fill="#149080" d="M26.1 37.8c-.3 1-.2 2.2 0 3.6.5 2.6 1.7 6 2.4 9.6h5.1c.7-3.6 1.9-7 2.5-9.6.3-1.4.3-2.7 0-3.6s-.9-1.6-2-2.3h-6c-1.2.6-1.8 1.4-2 2.3zm11.8 19.8H24.1c-1.3 0-2.3 1-2.3 2.2V62h18.3v-2.2c0-1.3-1-2.2-2.2-2.2zm7-55.4H33.3C33.3 1 32.3 0 31 0s-2.3 1-2.3 2.2H17.1L11 27.5c.8-.5 1.6-1 2.6-1 1.4 0 2.2.8 2.9 1.4.7.6 1.2.9 1.5.9s.8-.3 1.5-.8 1.6-1.4 2.9-1.4 2.2.8 2.9 1.4c.7.5 1.2.8 1.5.8.1 0 .3-.1.6-.2s.5-.4.9-.6c.5-.4 1.1-1 2-1.2.3-.1.6-.1.9-.1 1.3 0 2.2.8 2.9 1.4.7.5 1.2.8 1.5.8s.8-.3 1.4-.9c.7-.6 1.6-1.4 2.9-1.4 1.4 0 2.2.8 2.9 1.4.3.3.6.5.9.6.2.1.4.2.6.2.3 0 .8-.3 1.4-.9.7-.6 1.6-1.4 2.9-1.4 1 0 1.8.5 2.6 1L44.9 2.2zm-10.5 51h-6.9c-.7 0-1.1.5-1.1 1.1 0 .6.5 1.1 1.1 1.1h6.9c.7 0 1.1-.5 1.1-1.1.1-.6-.4-1.1-1.1-1.1zM31 28.8c-.1 0-.3.1-.6.2-.2.1-.4.3-.6.4v3.7h2.3v-3.7c-.4-.3-.9-.6-1.1-.6z"/></svg>