<svg version="1.1" xmlns="http://www.w3.org/2000/svg" width="34.4" height="34.4" viewBox="0 0 34.4 34.4"><path fill="#63d1bb" d="M0.3,14.1c-0.4,2.1-0.4,4.2,0,6.3l4.1-3.2L0.3,14.1z M24.4,1.6C19.6-0.6,14-0.6,9.1,2l7.5,5.6L24.4,1.6z M33.9,13.2 l-4.8,3.7l4.9,3.7C34.5,18.2,34.5,15.6,33.9,13.2z M9.2,32.4c4.8,2.5,10.7,2.7,15.7,0.1l-8.1-6.1L9.2,32.4z M7.9,14.4L1.7,9.8 c-0.3,0.7-0.6,1.4-0.8,2.1l5.3,4L7.9,14.4z M18.6,25.1l8.3,6.2c0.3-0.2,0.6-0.4,0.8-0.6c0.3-0.2,0.6-0.5,0.9-0.8l-8.3-6.2L18.6,25.1 z M11.4,11.7L4,6.2C3.5,6.7,3.1,7.3,2.7,7.9l6.9,5.2L11.4,11.7z M22.1,22.4l8.1,6.1c0.5-0.5,0.9-1.1,1.3-1.7L23.8,21L22.1,22.4z  M14.9,9L7.2,3.2C7,3.3,6.8,3.5,6.6,3.6c-0.4,0.3-0.8,0.6-1.1,1l7.7,5.7L14.9,9z M25.6,19.6l7,5.2c0.3-0.7,0.6-1.3,0.9-2l-6.1-4.5 L25.6,19.6z M26.4,2.7L0.9,22.6c0.2,0.7,0.5,1.4,0.8,2.1L28.2,4C27.7,3.5,27.1,3.1,26.4,2.7z M30.7,6.6c-0.3-0.4-0.6-0.8-0.9-1.1 l-27,21C3,27,3.3,27.4,3.6,27.8c0.1,0.2,0.3,0.4,0.4,0.5L31.2,7.2C31,7,30.9,6.8,30.7,6.6z M32.3,9L5.6,29.8c0.5,0.5,1.1,1,1.7,1.4 l26-20.2C33,10.3,32.7,9.6,32.3,9z"/></svg>
