<svg xmlns="http://www.w3.org/2000/svg" width="32" height="37.3" viewBox="0 0 32 37.3"><path fill="#63d1bb" d="M16 37.3c8.8 0 16-7.2 16-16-8.9 0-16 7.2-16 16zM4.6 16.4c0 2.5 2 4.4 4.4 4.4.9 0 1.8-.3 2.5-.8v.3c0 2.5 2 4.4 4.4 4.4s4.4-2 4.4-4.4V20a4.376 4.376 0 0 0 6.9-3.6c0-1.8-1-3.3-2.5-4 1.5-.7 2.5-2.2 2.5-4 0-2.5-2-4.4-4.4-4.4-.9 0-1.8.3-2.5.8v-.3C20.4 2 18.4 0 16 0s-4.4 2-4.4 4.4v.3C10.9 4.3 10 4 9.1 4 6.6 4 4.6 6 4.6 8.4c0 1.8 1 3.3 2.5 4-1.4.7-2.5 2.3-2.5 4zM16 8c2.5 0 4.4 2 4.4 4.4s-2 4.4-4.4 4.4-4.4-2-4.4-4.4C11.5 10 13.5 8 16 8zM0 21.3c0 8.8 7.2 16 16 16 0-8.8-7.2-16-16-16z"/></svg>