<svg xmlns="http://www.w3.org/2000/svg" width="32.7" height="32.5" viewBox="0 0 32.7 32.5"><path fill="#63d1bb" d="M2.9 32.5h12.5V18.6H2.9v13.9zM31.1 8.9h-7.3c.5-.3 1-.5 1.4-.8 1.6-1.1 2.4-2.6 2.4-4 0-1.2-.6-2.2-1.4-2.9-.8-.7-1.9-1.1-3-1.1-1.2 0-2.4.4-3.3 1.1-1.5 1-2.6 2.5-3.4 4.1 0 .1-.1.2-.1.2-.3-.6-.6-1.2-1-1.8-.7-1-1.5-1.9-2.5-2.5C11.8.4 10.7 0 9.5 0 8.3 0 7.1.5 6.3 1.3c-.8.8-1.4 1.9-1.4 3.1 0 .7.2 1.5.6 2.2.6.9 1.5 1.6 2.7 2.3H1.6c-.9 0-1.6.7-1.6 1.6v5.9h15.4V8.9h1.9v7.5h15.4v-5.9c0-.9-.7-1.6-1.6-1.6M8.7 6.5c-.6-.4-1-.8-1.2-1.1-.2-.4-.3-.7-.3-1 0-.5.2-1 .7-1.5.4-.4 1-.7 1.6-.7.7 0 1.4.2 2 .7 1 .7 2 1.9 2.6 3.2.3.7.6 1.4.8 2.1-3-.3-5-.9-6.2-1.7m10.6-1.6c.6-.8 1.2-1.5 1.9-1.9.7-.5 1.4-.7 2-.7.6 0 1.1.2 1.5.6.4.3.6.7.6 1.2s-.3 1.3-1.5 2.1c-1.1.8-3.1 1.7-6.1 2.3.3-1.3.8-2.6 1.6-3.6m-2 27.6h12.5V18.6H17.3v13.9z"/></svg>