<svg version="1.1" xmlns="http://www.w3.org/2000/svg" width="20.3" height="18.8" viewBox="0 0 20.3 18.8"><path fill="#cccccc" d="M19.5,7.2h-3.2L13,0.4c-0.2-0.4-0.6-0.5-1-0.3c-0.4,0.2-0.5,0.6-0.3,1l3.1,6.1H5.6l3.1-6.1c0.2-0.4,0-0.8-0.3-1 s-0.8,0-1,0.3L3.9,7.2H0.8C0.3,7.2,0,7.6,0,8c0,0.4,0.3,0.7,0.8,0.7h0.2l0.9,3c-0.2,0.1-0.3,0.3-0.3,0.6c0,0.4,0.3,0.7,0.7,0.7 l1.7,5.8h12.7l1.7-5.8c0.4,0,0.7-0.3,0.7-0.7c0-0.2-0.1-0.5-0.3-0.6l0.9-3h0.2c0.4,0,0.8-0.3,0.8-0.7C20.3,7.6,20,7.2,19.5,7.2z  M15.4,17.3H4.9l-1.2-4.3h12.9L15.4,17.3z M17,11.6H3.3L2.5,8.7h15.4L17,11.6z"/></svg>
