<svg version="1.1" xmlns="http://www.w3.org/2000/svg" width="62" height="62" viewBox="0 0 62 62"><path fill="#149080" d="M26.1,37.8c-0.3,1-0.2,2.2,0,3.6c0.5,2.6,1.7,6,2.4,9.6h5.1c0.7-3.6,1.9-7,2.5-9.6c0.3-1.4,0.3-2.7,0-3.6 s-0.9-1.6-2-2.3h-6C26.9,36.1,26.3,36.9,26.1,37.8z M37.9,57.6H24.1c-1.3,0-2.3,1-2.3,2.2V62h2.3h13.7h2.3v-2.2 C40.1,58.5,39.1,57.6,37.9,57.6z M44.9,2.2H33.3C33.3,1,32.3,0,31,0s-2.3,1-2.3,2.2H17.1L11,27.5c0.8-0.5,1.6-1,2.6-1 c1.4,0,2.2,0.8,2.9,1.4c0.7,0.6,1.2,0.9,1.5,0.9s0.8-0.3,1.5-0.8c0.7-0.5,1.6-1.4,2.9-1.4s2.2,0.8,2.9,1.4c0.7,0.5,1.2,0.8,1.5,0.8 c0.1,0,0.3-0.1,0.6-0.2s0.5-0.4,0.9-0.6c0.5-0.4,1.1-1,2-1.2c0.3-0.1,0.6-0.1,0.9-0.1c1.3,0,2.2,0.8,2.9,1.4 c0.7,0.5,1.2,0.8,1.5,0.8s0.8-0.3,1.4-0.9c0.7-0.6,1.6-1.4,2.9-1.4c1.4,0,2.2,0.8,2.9,1.4c0.3,0.3,0.6,0.5,0.9,0.6 c0.2,0.1,0.4,0.2,0.6,0.2c0.3,0,0.8-0.3,1.4-0.9c0.7-0.6,1.6-1.4,2.9-1.4c1,0,1.8,0.5,2.6,1L44.9,2.2z M34.4,53.2h-6.9 c-0.7,0-1.1,0.5-1.1,1.1c0,0.6,0.5,1.1,1.1,1.1h6.9c0.7,0,1.1-0.5,1.1-1.1C35.6,53.7,35.1,53.2,34.4,53.2L34.4,53.2z M31,28.8 c-0.1,0-0.3,0.1-0.6,0.2c-0.2,0.1-0.4,0.3-0.6,0.4v3.7h2.3v-3.7C31.7,29.1,31.2,28.8,31,28.8z"/></svg>
