<svg version="1.1" xmlns="http://www.w3.org/2000/svg" width="32.7" height="32.5" viewBox="0 0 32.7 32.5"><path fill="#63d1bb" d="M2.9,32.5h12.5V18.6H2.9V32.5z M31.1,8.9h-7.3c0.5-0.3,1-0.5,1.4-0.8c1.6-1.1,2.4-2.6,2.4-4 c0-1.2-0.6-2.2-1.4-2.9c-0.8-0.7-1.9-1.1-3-1.1c-1.2,0-2.4,0.4-3.3,1.1c-1.5,1-2.6,2.5-3.4,4.1c0,0.1-0.1,0.2-0.1,0.2 c-0.3-0.6-0.6-1.2-1-1.8c-0.7-1-1.5-1.9-2.5-2.5C11.8,0.4,10.7,0,9.5,0C8.3,0,7.1,0.5,6.3,1.3C5.5,2.1,4.9,3.2,4.9,4.4 c0,0.7,0.2,1.5,0.6,2.2C6.1,7.5,7,8.2,8.2,8.9H1.6C0.7,8.9,0,9.6,0,10.5v5.9h15.4V8.9h1.9v7.5h15.4v-5.9C32.7,9.6,32,8.9,31.1,8.9  M8.7,6.5c-0.6-0.4-1-0.8-1.2-1.1C7.3,5,7.2,4.7,7.2,4.4c0-0.5,0.2-1,0.7-1.5c0.4-0.4,1-0.7,1.6-0.7h0c0.7,0,1.4,0.2,2,0.7 c1,0.7,2,1.9,2.6,3.2c0.3,0.7,0.6,1.4,0.8,2.1C11.9,7.9,9.9,7.3,8.7,6.5 M19.3,4.9c0.6-0.8,1.2-1.5,1.9-1.9c0.7-0.5,1.4-0.7,2-0.7h0 c0.6,0,1.1,0.2,1.5,0.6c0.4,0.3,0.6,0.7,0.6,1.2c0,0.5-0.3,1.3-1.5,2.1c-1.1,0.8-3.1,1.7-6.1,2.3C18,7.2,18.5,5.9,19.3,4.9  M17.3,32.5h12.5V18.6H17.3V32.5z"/></svg>
