<svg version="1.1" xmlns="http://www.w3.org/2000/svg" width="40.2" height="62.4" viewBox="0 0 40.2 62.4"><path fill="#3bb09d" d="M15.2,38c-0.3,1-0.2,2.2,0,3.6c0.5,2.6,1.7,6,2.4,9.7h5.1c0.7-3.6,1.9-7,2.5-9.7c0.3-1.4,0.3-2.7,0-3.6 c-0.3-0.9-0.9-1.6-2-2.3h-6C16,36.3,15.4,37.1,15.2,38z M27,58H13.2c-1.3,0-2.3,1-2.3,2.2v2.2h2.3H27h2.3v-2.2 C29.3,58.9,28.3,58,27,58z M34.1,2.2H22.4c0-1.2-1-2.2-2.3-2.2s-2.3,1-2.3,2.2H6.1L0,27.7c0.8-0.5,1.6-1,2.6-1 c1.4,0,2.2,0.8,2.9,1.4S6.7,29,7,29s0.8-0.3,1.5-0.8s1.6-1.4,2.9-1.4s2.2,0.8,2.9,1.4c0.7,0.5,1.2,0.8,1.5,0.8 c0.1,0,0.3-0.1,0.6-0.2s0.5-0.4,0.9-0.6c0.5-0.4,1.1-1,2-1.2c0.3-0.1,0.6-0.1,0.9-0.1c1.3,0,2.2,0.8,2.9,1.4 c0.7,0.5,1.2,0.8,1.5,0.8s0.8-0.3,1.4-0.9c0.7-0.6,1.6-1.4,2.9-1.4c1.4,0,2.2,0.8,2.9,1.4c0.3,0.3,0.6,0.5,0.9,0.6 c0.2,0.1,0.4,0.2,0.6,0.2c0.3,0,0.8-0.3,1.4-0.9c0.7-0.6,1.6-1.4,2.9-1.4c1,0,1.8,0.5,2.6,1L34.1,2.2z M23.5,53.5h-6.9 c-0.7,0-1.1,0.5-1.1,1.1s0.5,1.1,1.1,1.1h6.9c0.7,0,1.1-0.5,1.1-1.1C24.7,54,24.2,53.5,23.5,53.5L23.5,53.5z M20.1,29 c-0.1,0-0.3,0.1-0.6,0.2c-0.2,0.1-0.4,0.3-0.6,0.4v3.7h2.3v-3.7C20.8,29.3,20.3,29,20.1,29z"/></svg>
