<svg xmlns="http://www.w3.org/2000/svg" width="112.4" height="46.1" viewBox="0 0 112.4 46.1"><path d="M110.2 41.9c-1.1-.2-17.4 7.8-20.8 2.2-4.6-.2-9.7-.1-14.2-1.2-15.5-1.2-31.8 2.4-47.3 1-6.6-.6-16.7 1.8-23-.4-.8-.7-7.2-4.1-3.1-4.9C.4 29.3-2 10.7 3.1 3.5c2.7-3.8 31.3-1.7 37.5-2 12.4-.6 24.9 1.4 37.6.4 5.5-.4 30.2-4.9 32.2 1.7.6 2.4 4.2 39.2-.2 38.3.5.1-.1 0 0 0zM26 24.4c-.1-2.5-.5-5.1-.5-7.6 0-2.1.4-4.2-.3-6.2 0-.2.1-.4.1-.7.2-1-3.1-.5-3.6.4-.3.3-.5.6-.4.9 0 .1.1.2.1.2-.6 3-1.5 6-2.5 8.9-.4 1.1-.8 2.2-1.2 3.4-.6-1-1.1-2.1-1.6-3.2-1.3-3.3-2.5-6.6-4.1-9.7.2-1.5-3-1.3-3.7 0-.8 1.6-.7 3.2-.4 4.9.3 1.9.3 3.8.4 5.8 0 3.8.3 7.5.4 11.3-.3.4-.4.8-.1 1.3.2.2.3.4.5.5.9.7 3.3.1 3.3-1.2 0-3.9-.3-7.8-.4-11.7v-1.1c.1.1.1.3.2.4.6 1.5 1.2 3 2.1 4.4.8 1.4 1.2 2.9 1.7 4.4-.2.2-.3.4-.2.7 0 .2.1.3.2.3.6.5 1.7.3 2.4 0 .3-.1.5-.2.8-.4s.8-.6.7-1.1c0-.1-.1-.2-.1-.3.4-1.2.7-2.5.9-3.7.3-1.4.7-2.6 1.2-3.9 0 .6.1 1.2.1 1.8.2 2.4 0 4.8 0 7.2 0 .8.1 1.5.2 2.3.1.3.3 1.7.3 1.8-.6.5-.4 1.2.4 1.4.9.2 2-.1 2.6-.7 1.1-1 .6-2.7.3-4-.3-2 .3-4.5.2-6.8zm7.9.7c-.1-1.9-.7-3.7-.7-5.6 0-2.2.2-4.4-.1-6.5-.1-.7-3.8.1-3.7 1 .3 2 .2 4 .2 6 0 1.9.4 3.7.7 5.6.3 2-.1 3.9.1 5.9.1.9.7 2.6.1 3.4-.4.5 1.4.3 1.5.3.7-.1 1.7-.4 2.2-1 .6-.8.2-2.3.1-3.2-.5-1.9-.3-4-.4-5.9zm15.5-3.2c-2-2.6-5.6-.7-8.1-1.5C40 20 40 18.2 40 17.2c0-1.4-.1-2.6-.3-3.9-.1-1 0-2 .7-2.8.1-.1.8-.3.8-.3.3-.1.6-.1 1-.1 1.5-.1 4.4.2 3.8 2.4-.3 1 3.4.4 3.7-.6 1.2-4.4-6.9-3.5-9.2-2.9-2.1.6-4.4 1.8-4.5 4.2-.1 1.2.3 2.3.3 3.4.1 1.3-.2 2.6.3 3.9 1 2.8 5.2 1.5 7.4 1.7 3.6.3 2.6 5.2 2.6 7.5 0 1.2 1.1 3.3.2 4.3-.6.6-1.9.7-2.6.7-.8.1-2.1.3-2.6-.4-.9-1.3.1-3.6-.1-5.1-.1-.9-3.9-.1-3.7 1 .3 2.5-1.3 5.8 2.3 6.3 2.3.3 4.9-.2 7.1-.9 1.1-.4 2.2-.9 3.1-1.7 1-.9.7-2.2.4-3.4-.8-3 .5-6.2-1.3-8.6zm16.5-.2c-.1-3.6-.7-7.1-.7-10.7 0-1.9-3.8-1.2-3.8.3 0 3.4.5 6.8.6 10.2v.2c-1.8 0-3.7.2-5.6.2.2-4.4-.6-8.8-.4-13.1 0-.6-3.7-.1-3.7 1-.2 4.2.6 8.5.4 12.7-.1 2-.2 4-.2 6.1 0 1 .2 2.1.3 3.1.1.9.5 2.2.2 3.1-.2.7 3.4.3 3.7-.7.5-1.7-.2-3.8-.4-5.5-.2-1.6 0-3.3.1-5 1.9-.1 3.9-.3 5.8 0l.3 3.9c.1 1.1.2 2.2.2 3.3 0 1 .1 2.4-.2 3.3-.7 2 3 1.8 3.5.3.7-1.8.5-4 .4-5.8-.1-2.2-.5-4.6-.5-6.9zm16 4.3c-.9-2.6-2.3-4.9-3.4-7.4 1-1.9 1.9-3.7 2.8-5.6.8-1.7 1.4-3.6 2.9-4.8.5-.4.5-.8-.2-.9-.8-.1-2 .2-2.6.7-1.4 1.1-2.3 2.4-3 4.1-.9 1.9-1.8 3.9-2.8 5.8-.1.1-.1.3-.2.4-.5.3-.7.7-.6 1.2-.8 1.5-1.5 3-2.4 4.4-.3-5.3-.9-10.5-1.1-15.8 0-1.2-3.8-.5-3.7 1 .2 6.5 1.2 13 1.2 19.5-.3.3-.2.5.1.6 0 1.7-.1 3.3-.2 5-.4.7.4 1.1 1 1.1h.1c.7 0 2.5-.3 2.6-1.3.2-2 .2-4 .2-6 1.5-1.6 2.7-3.4 3.8-5.3.7 1.4 1.4 2.8 1.9 4.3.8 2.6 2.2 5 3 7.6.5 1.7 4.2.7 3.7-1-.9-2.6-2.2-5-3.1-7.6zM30.7 10.4c.5 0 1-.2 1.4-.5.1-.1.2-.1.2-.2.5-.3.9-.8.7-1.3-.5-1-.4-2.1-.4-3.2 0-.9-.9-1.2-1.7-1.1-.7.1-2.1.6-2.1 1.4 0 .9-.1 1.9.1 2.8 0 .1-.1.2-.1.3-.1.2 0 .4.1.6v.4c.1.2.2.4.4.5.5.3 1 .3 1.4.3z"/><path fill="#fff" d="M104.2 21.6c-.2-.8-1.3-.8-2.2-.7v-1c-.1-2.5-.2-5.1-.4-7.6-.2-2.3-1.5-3.2-3.8-3.1s-5 .5-7.1 1.3c-2.5 1-3.9 2.8-4.3 5.4-.5 2.9.2 5.9.4 8.8.1 3.3.1 6.7.1 10 0 .5 3.7 0 3.7-1v-7.9c0-.8 0-1.5-.1-2.3 1.3-.6 3.5 0 4.8.1 1.1.1 2.1-.2 3.1-.3 0 2.2.1 4.4.2 6.6 0 1.1.5 3.4-.3 4.3-.4.5 1.4.3 1.5.3.8-.1 1.7-.4 2.2-1 .9-1.1.4-3.6.4-4.9-.1-1.8-.1-3.6-.1-5.4.9-.1 2.1-.8 1.9-1.6zm-13.8-.2l-.3-3.6c-.2-2.2.1-5.3 2.2-6.6.6-.4 1.6-.3 2.2-.4.9-.2 1.9-.4 2.7.2 1.1.8.9 3.5.9 4.6 0 1.9.2 3.8.3 5.7-.5.1-1.1.1-1.6.1-2.2-.1-4.4-.4-6.4 0z"/></svg>