<svg version="1.1" xmlns="http://www.w3.org/2000/svg" width="112.4" height="46.1" viewBox="0 0 112.4 46.1"><path d="M110.2,41.9c-1.1-0.2-17.4,7.8-20.8,2.2c-4.6-0.2-9.7-0.1-14.2-1.2c-15.5-1.2-31.8,2.4-47.3,1c-6.6-0.6-16.7,1.8-23-0.4 c-0.8-0.7-7.2-4.1-3.1-4.9C0.4,29.3-2,10.7,3.1,3.5c2.7-3.8,31.3-1.7,37.5-2C53,0.9,65.5,2.9,78.2,1.9c5.5-0.4,30.2-4.9,32.2,1.7 C111,6,114.6,42.8,110.2,41.9C110.7,42,110.1,41.9,110.2,41.9z M26,24.4c-0.1-2.5-0.5-5.1-0.5-7.6c0-2.1,0.4-4.2-0.3-6.2 c0-0.2,0.1-0.4,0.1-0.7c0.2-1-3.1-0.5-3.6,0.4c-0.3,0.3-0.5,0.6-0.4,0.9c0,0.1,0.1,0.2,0.1,0.2c-0.6,3-1.5,6-2.5,8.9 c-0.4,1.1-0.8,2.2-1.2,3.4c-0.6-1-1.1-2.1-1.6-3.2c-1.3-3.3-2.5-6.6-4.1-9.7c0.2-1.5-3-1.3-3.7,0c-0.8,1.6-0.7,3.2-0.4,4.9 c0.3,1.9,0.3,3.8,0.4,5.8c0,3.8,0.3,7.5,0.4,11.3c-0.3,0.4-0.4,0.8-0.1,1.3c0.2,0.2,0.3,0.4,0.5,0.5c0.9,0.7,3.3,0.1,3.3-1.2 c0-3.9-0.3-7.8-0.4-11.7c0-0.4,0-0.8,0-1.1c0.1,0.1,0.1,0.3,0.2,0.4c0.6,1.5,1.2,3,2.1,4.4c0.8,1.4,1.2,2.9,1.7,4.4 c-0.2,0.2-0.3,0.4-0.2,0.7c0,0.2,0.1,0.3,0.2,0.3c0.6,0.5,1.7,0.3,2.4,0c0.3-0.1,0.5-0.2,0.8-0.4s0.8-0.6,0.7-1.1 c0-0.1-0.1-0.2-0.1-0.3c0.4-1.2,0.7-2.5,0.9-3.7c0.3-1.4,0.7-2.6,1.2-3.9c0,0.6,0.1,1.2,0.1,1.8c0.2,2.4,0,4.8,0,7.2 c0,0.8,0.1,1.5,0.2,2.3c0.1,0.3,0.3,1.7,0.3,1.8c-0.6,0.5-0.4,1.2,0.4,1.4c0.9,0.2,2-0.1,2.6-0.7c1.1-1,0.6-2.7,0.3-4 C25.5,29.2,26.1,26.7,26,24.4z M33.9,25.1c-0.1-1.9-0.7-3.7-0.7-5.6c0-2.2,0.2-4.4-0.1-6.5c-0.1-0.7-3.8,0.1-3.7,1 c0.3,2,0.2,4,0.2,6c0,1.9,0.4,3.7,0.7,5.6c0.3,2-0.1,3.9,0.1,5.9c0.1,0.9,0.7,2.6,0.1,3.4c-0.4,0.5,1.4,0.3,1.5,0.3 c0.7-0.1,1.7-0.4,2.2-1c0.6-0.8,0.2-2.3,0.1-3.2C33.8,29.1,34,27,33.9,25.1z M49.4,21.9c-2-2.6-5.6-0.7-8.1-1.5 C40,20,40,18.2,40,17.2c0-1.4-0.1-2.6-0.3-3.9c-0.1-1,0-2,0.7-2.8c0.1-0.1,0.8-0.3,0.8-0.3c0.3-0.1,0.6-0.1,1-0.1 c1.5-0.1,4.4,0.2,3.8,2.4c-0.3,1,3.4,0.4,3.7-0.6c1.2-4.4-6.9-3.5-9.2-2.9c-2.1,0.6-4.4,1.8-4.5,4.2c-0.1,1.2,0.3,2.3,0.3,3.4 c0.1,1.3-0.2,2.6,0.3,3.9c1,2.8,5.2,1.5,7.4,1.7c3.6,0.3,2.6,5.2,2.6,7.5c0,1.2,1.1,3.3,0.2,4.3c-0.6,0.6-1.9,0.7-2.6,0.7 c-0.8,0.1-2.1,0.3-2.6-0.4c-0.9-1.3,0.1-3.6-0.1-5.1c-0.1-0.9-3.9-0.1-3.7,1c0.3,2.5-1.3,5.8,2.3,6.3c2.3,0.3,4.9-0.2,7.1-0.9 c1.1-0.4,2.2-0.9,3.1-1.7c1-0.9,0.7-2.2,0.4-3.4C49.9,27.5,51.2,24.3,49.4,21.9z M65.9,21.7c-0.1-3.6-0.7-7.1-0.7-10.7 c0-1.9-3.8-1.2-3.8,0.3c0,3.4,0.5,6.8,0.6,10.2c0,0.1,0,0.1,0,0.2c-1.8,0-3.7,0.2-5.6,0.2c0.2-4.4-0.6-8.8-0.4-13.1 c0-0.6-3.7-0.1-3.7,1c-0.2,4.2,0.6,8.5,0.4,12.7c-0.1,2-0.2,4-0.2,6.1c0,1,0.2,2.1,0.3,3.1c0.1,0.9,0.5,2.2,0.2,3.1 c-0.2,0.7,3.4,0.3,3.7-0.7c0.5-1.7-0.2-3.8-0.4-5.5c-0.2-1.6,0-3.3,0.1-5c1.9-0.1,3.9-0.3,5.8,0c0.1,1.3,0.2,2.6,0.3,3.9 c0.1,1.1,0.2,2.2,0.2,3.3c0,1,0.1,2.4-0.2,3.3c-0.7,2,3,1.8,3.5,0.3c0.7-1.8,0.5-4,0.4-5.8C66.3,26.4,65.9,24,65.9,21.7z M81.9,26 c-0.9-2.6-2.3-4.9-3.4-7.4c1-1.9,1.9-3.7,2.8-5.6c0.8-1.7,1.4-3.6,2.9-4.8c0.5-0.4,0.5-0.8-0.2-0.9c-0.8-0.1-2,0.2-2.6,0.7 c-1.4,1.1-2.3,2.4-3,4.1c-0.9,1.9-1.8,3.9-2.8,5.8c-0.1,0.1-0.1,0.3-0.2,0.4c-0.5,0.3-0.7,0.7-0.6,1.2c-0.8,1.5-1.5,3-2.4,4.4 c-0.3-5.3-0.9-10.5-1.1-15.8c0-1.2-3.8-0.5-3.7,1c0.2,6.5,1.2,13,1.2,19.5l0,0c-0.3,0.3-0.2,0.5,0.1,0.6c0,1.7-0.1,3.3-0.2,5 c-0.4,0.7,0.4,1.1,1,1.1h0.1c0.7,0,2.5-0.3,2.6-1.3c0.2-2,0.2-4,0.2-6c1.5-1.6,2.7-3.4,3.8-5.3c0.7,1.4,1.4,2.8,1.9,4.3 c0.8,2.6,2.2,5,3,7.6c0.5,1.7,4.2,0.7,3.7-1C84.1,31,82.8,28.6,81.9,26z M30.7,10.4c0.5,0,1-0.2,1.4-0.5c0.1-0.1,0.2-0.1,0.2-0.2 c0.5-0.3,0.9-0.8,0.7-1.3c-0.5-1-0.4-2.1-0.4-3.2c0-0.9-0.9-1.2-1.7-1.1c-0.7,0.1-2.1,0.6-2.1,1.4c0,0.9-0.1,1.9,0.1,2.8 c0,0.1-0.1,0.2-0.1,0.3c-0.1,0.2,0,0.4,0.1,0.6v0.1c0,0.1,0,0.2,0,0.3c0.1,0.2,0.2,0.4,0.4,0.5C29.8,10.4,30.3,10.4,30.7,10.4z"/><path fill="#ffffff" d="M104.2,21.6c-0.2-0.8-1.3-0.8-2.2-0.7c0-0.3,0-0.6,0-1c-0.1-2.5-0.2-5.1-0.4-7.6c-0.2-2.3-1.5-3.2-3.8-3.1 s-5,0.5-7.1,1.3c-2.5,1-3.9,2.8-4.3,5.4c-0.5,2.9,0.2,5.9,0.4,8.8c0.1,3.3,0.1,6.7,0.1,10c0,0.5,3.7,0,3.7-1c0-2.6,0-5.3,0-7.9 c0-0.8,0-1.5-0.1-2.3c1.3-0.6,3.5,0,4.8,0.1c1.1,0.1,2.1-0.2,3.1-0.3c0,2.2,0.1,4.4,0.2,6.6c0,1.1,0.5,3.4-0.3,4.3 c-0.4,0.5,1.4,0.3,1.5,0.3c0.8-0.1,1.7-0.4,2.2-1c0.9-1.1,0.4-3.6,0.4-4.9c-0.1-1.8-0.1-3.6-0.1-5.4 C103.2,23.1,104.4,22.4,104.2,21.6z M90.4,21.4c-0.1-1.2-0.2-2.4-0.3-3.6c-0.2-2.2,0.1-5.3,2.2-6.6c0.6-0.4,1.6-0.3,2.2-0.4 c0.9-0.2,1.9-0.4,2.7,0.2c1.1,0.8,0.9,3.5,0.9,4.6c0,1.9,0.2,3.8,0.3,5.7c-0.5,0.1-1.1,0.1-1.6,0.1C94.6,21.3,92.4,21,90.4,21.4z"/></svg>
