<svg version="1.1" xmlns="http://www.w3.org/2000/svg" viewBox="0 0 148 72.7"><path d="M143.2,31.4c-1.5,1.1-3.1,1.9-4.7,2.8c0-1.7-0.1-3.5-0.6-5.1c0.1-0.3,0.1-0.7,0.1-1c0.4-3,0.7-7.1-2-9.2 c-0.3-0.3-1.2,0-1.9,0.3c-0.2-0.2-0.3-0.3-0.5-0.4c-0.1-0.2-0.2-0.5-0.2-0.7c0-0.1-0.2-0.2-0.4-0.2c0.3-0.4,0.3-0.8-0.4-1.1 c-0.4-0.2-0.8-0.3-1.1-0.4c-0.1-0.1-0.1-0.1-0.2-0.1c0,0,0,0,0,0c-0.9-0.3-1.9-0.5-2.9-0.7c0.1-0.3,0.4-0.8,0.6-1 c0.1-0.2,0.3-0.3,0.4-0.4c0.1-0.1,0.1-0.1,0.2-0.2c0,0,0.1,0,0.1-0.1c0,0,0,0,0.1-0.1c0.4-0.3,0.8-0.9,0.2-1.2 c-0.6-0.3-1.5-0.1-2,0.2c-0.9,0.7-1.6,1.4-2.1,2.4c-2-0.2-4-0.2-6.1-0.1c0.1-0.1,0.1-0.2,0.1-0.3c0.2-0.6-0.9-0.5-1.2-0.5 c-1.6,0.2-3.1,0.4-4.7,0.6c1.4-3.8,3.1-8.6,1-12.3c-1.2-2.1-3.9-2.6-6.1-2.7c-2.4-0.1-4.9,0.5-7,1.6c-4.8,2.6-7.1,7.7-8.2,13.1 c-0.5-0.7-2.3-0.4-2.6,0.5c-0.1,0.3-0.2,0.6-0.3,1c-0.2,0.2-0.3,0.4-0.3,0.6c0,0.1,0,0.1,0,0.2c-0.1,0-0.1,0-0.2,0 c0-0.1,0-0.2,0.1-0.3c0.1-0.1,0.2-0.2,0.3-0.4c0.6-2.3,1.2-4.6,1.9-6.8c0.3-0.8-2.5-0.4-2.8,0.4c-0.4,1.2-0.8,2.4-1.1,3.6 c-0.2,0.1-0.4,0.2-0.4,0.3c0,0,0,0.1,0,0.1c-0.1-0.1-0.3-0.2-0.5-0.2c0-0.3,0-0.6,0-1c0-0.4-2.8,0-2.8,0.8c0,0.5,0,1,0,1.6 c-0.2,0.1-0.3,0.2-0.5,0.3c-0.1,0.1-0.1,0.1-0.2,0.2c-0.1,0.1-0.1,0.2-0.1,0.2c0,0,0,0.1,0,0.1c0,0,0,0-0.1,0.1 c-0.1,0.1-0.2,0.3,0,0.5c0.2,0.2,0.5,0.2,0.7,0.2c0,0,0.1,0,0.1,0c0,0.2,0,0.3,0,0.5c-0.2,0-0.5,0-0.7,0l-0.4-0.1 c0-0.4-0.7-0.5-1.4-0.3c0,0,0-0.1,0-0.1c-0.1-0.6-0.2-1.2-0.2-1.8c0.2-0.1,0.5-0.2,0.7-0.3c0.2-0.1,0.3-0.2,0.3-0.4 c0-0.1,0-0.1,0-0.2c0-0.2-0.4-0.2-0.5-0.2c-0.2,0-0.4,0-0.6,0C82,12.4,82,11.1,82,9.8c0-0.8-2.8-0.3-2.8,0.8c0,1.8,0,3.6,0.2,5.3 c-0.1,0-0.2,0-0.3,0c0-0.5,0-1,0-1.5c0-1-1.3-1.2-2.1-0.8c0.3-0.3,0.5-0.6,0.4-1c-0.4-1.4-0.8-2.8-1-4.3c-0.2-1.4-3-0.7-2.8,0.8 c0.2,1.5,0.6,2.9,1,4.3c0.2,0.8,1.3,0.9,2.1,0.5c-0.2,0.2-0.4,0.5-0.4,0.8c0,0.2,0,0.4,0,0.6C76,15,75.8,15,75.4,15 c-1.1,0-1.7,0.9-1.4,1.5c-0.2,0-0.3-0.1-0.5-0.1c-0.4-1.2-0.7-2.5-0.7-3.8c0-0.9-1.3-1-2.1-0.7c0-0.1,0-0.1,0-0.2 c-0.4-0.8-0.6-1.7-0.8-2.5c-0.3-1.3-3.2-0.6-2.8,0.8c0.2,0.6,0.3,1.3,0.5,1.9c0,0,0,0-0.1,0c-0.3,0.1-0.6,0.2-0.9,0.4 c-0.8,0.1-1.8,0.6-1.8,1.2c0.1,0.5,0.1,1,0.2,1.4C64.6,15,64,15,63.5,15.1c-0.3-0.8-0.5-1.6-0.6-2.4c-0.1-0.9-1.6-0.9-2.3-0.3 c-0.8-2.1-1.8-4-3.1-5.8C54.8,3.2,50.3,2,46.2,2.9c-1.9,0.4-3.7,1.2-5,2.6c-1.2,1.4-1.4,3.1-1.2,4.8c0.2,1.5,0.6,4,1.6,6 c-0.4,0-0.7,0-0.9,0.1c-0.3,0.1-0.6,0.2-0.8,0.4c-1.9,0-3.9,0-5.8-0.1c-4.2-0.2-8.3-0.9-12.5-0.7c-0.9,0-1.5,0.7-1.5,1.3 c-1,0.5-1.7,1.3-2.1,2.3c-1.7-1.1-3.5-2.3-5.3-3.2c-0.7-0.4-3.3,0.7-2.3,1.2c1.8,0.9,3.6,2.1,5.3,3.2c0.5,0.3,1.3,0.1,1.8-0.1 c0,0,0.1,0,0.2-0.1c-0.3,1.4-0.2,3.1,0.2,4.5c0,0.1,0.1,0.2,0.2,0.3c0,0.3,0,0.7,0,1c0,0.1,0,0.1,0,0.2c-0.4,0.2-0.7,0.5-0.8,0.8 c-0.2,1.4-0.3,2.8-0.3,4.2c-0.3,0.2-0.5,0.5-0.5,0.8c-0.2,3.3,0,6.7,0.5,10c0.2,2.7,0.7,5.3,1.2,8c0.1,0.4,0.1,0.8,0.2,1.3 c-0.3,1.1-0.4,2.4-0.2,3.5c-0.9,0.2-1.7,0.9-1.2,1.6c0.8,1.2,1.6,2,2.6,2.6c-0.6-0.1-1.4,0.1-1.9,0.6c-0.8,0.8-1.7,1.5-2.5,2.3 c-0.4,0.4-0.3,0.9,0.3,1.1c0.7,0.2,1.5-0.1,2-0.5c0.8-0.8,1.7-1.5,2.5-2.3c0.2-0.2,0.3-0.5,0.2-0.7c3.2,1.7,7.2,1.3,11.1,0.9 c-0.9,1.6-1.5,3.3-2.2,5c-0.3,0.7,2.5,0.4,2.8-0.4c0.6-1.7,1.2-3.3,2.1-4.9c3.7,0.1,7.5,0.1,11.2,0.1c0.1,0.2,0.4,0.3,0.7,0.3 c3.3,0.3,6.5-0.1,9.7-0.7c4.8-0.2,9.6-0.5,14.4-0.8c7.5-0.2,15.1-0.3,22.6-0.3c0.1,0.1,0.2,0.2,0.3,0.3c0.3,0.3,0.6,0.3,1,0.3 c0.1,0,0.1,0,0.2,0c0.7,0,1.4,0.1,2.1,0.1c0.2,0,0.3,0.1,0.6,0c0,0,0,0,0,0c0.8,0.1,1.6,0.1,2.3,0.2c0.2,0.2,0.5,0.3,0.8,0.4 c3.8,0.3,7.6,0.5,11.4,0.7c0.1,0.2,0.5,0.3,0.8,0.3c7.1,0.1,15.3,2.8,21.6-1.7c0.5-0.4,0.3-0.9-0.3-1c-0.1,0-0.2,0-0.3,0 c0,0,0,0,0,0c1.2-2.8,2.2-5.6,2.9-8.6c0.4-0.2,0.6-0.5,0.6-0.9c0-1.2,0.2-2.4,0.4-3.6c0.2-0.9,0.3-1.8,0.4-2.7 c0.4-2.2,0.8-4.4,1-6.5c2.3-1.1,4.5-2.3,6.6-3.8C146.6,31.4,144.2,30.7,143.2,31.4z M87.8,16.4c0,0-0.1,0.1-0.1,0.1 c0.1-0.3,0.1-0.6,0.2-0.9c0,0,0.1,0,0.1,0C88,15.8,87.9,16.1,87.8,16.4z M62.3,10.9c-0.3-0.5,0.4-0.9,0.8-1.1 c0.3-0.1,0.7-0.2,1.1-0.2c0.2,0,0.6,0,0.8,0.2c0.4,0.6,0.6,1.2,1,1.8c0.3,0.5-0.4,0.9-0.8,1.1c-0.3,0.1-0.7,0.2-1.1,0.2 c-0.2,0-0.6,0-0.8-0.2C62.9,12.1,62.6,11.4,62.3,10.9z M20,9.6c-0.5-0.5,0.3-1.2,0.7-1.3c0.6-0.3,1.4-0.4,1.9,0.2 c0.5,0.5,0.7,1.2,0.9,1.8c0.2,0.6-0.7,1.1-1.2,1.3c-0.5,0.1-1.4,0.1-1.6-0.5C20.5,10.3,20.4,10,20,9.6z M31.8,12.6 c1.9,0-0.3,1.3-1.2,1.3C28.8,13.9,31,12.6,31.8,12.6z M122,11.9c-0.1-0.2,0.1-0.5,0.3-0.6c0.1-0.1,0.1-0.1,0.2-0.2c0,0,0,0,0,0 c0,0,0,0,0,0c0.1-0.2,0.3-0.3,0.4-0.5c0.1-0.3,0.5-0.4,0.8-0.6c0.3-0.1,0.7-0.2,1.1-0.2c0.3,0,0.6,0.1,0.8,0.3 c0.2,0.2,0.1,0.4,0,0.6c-0.2,0.4-0.6,0.8-1,1.2c-0.2,0.2-0.6,0.4-0.9,0.5c-0.3,0.1-0.7,0.1-1.1,0.1C122.3,12.2,122.1,12.1,122,11.9z  M135.2,17.3c1.2-1,2.4-2.1,3.4-3.4c0.3-0.5,1.1-0.6,1.7-0.7c0.1,0,1.4-0.2,1.1,0.2c-1,1.4-2.3,2.5-3.6,3.6 c-0.5,0.4-1.3,0.6-1.9,0.7C135.6,17.7,134.7,17.7,135.2,17.3z M148,45.7c-0.1,0.7-0.9,1.1-1.6,1.1c-1.6,0-3.2,0-4.9,0 c-0.5,0-1.4-0.2-1.3-0.9c0.1-0.7,0.9-1.1,1.6-1.1c1.6,0,3.2,0,4.9,0C147.3,44.8,148.1,45,148,45.7z M58.2,61.2 c-0.5,1.3-1,2.6-1.4,3.9c-0.2,0.8-3,1.2-2.8,0.5c0.4-1.3,0.8-2.6,1.4-3.9c0.2-0.5,1.1-0.8,1.6-0.8C57.2,60.8,58.4,60.6,58.2,61.2z  M62.1,63.5c0,0.2,0,0.4,0,0.5c0,0.2-0.1,0.3-0.3,0.5c-0.2,0.2-0.6,0.3-0.8,0.4c-0.4,0.1-0.7,0.2-1.1,0.3c-0.2,0-0.5,0.1-0.7-0.1 c-0.1-0.1-0.1-0.2,0-0.3c0,0,0,0,0,0c0.1-0.1,0.1-0.2,0.1-0.3c0-0.1,0-0.2,0-0.3c0-0.2,0.2-0.3,0.3-0.4c0.3-0.2,0.6-0.3,1-0.4 c0.3-0.1,0.7-0.2,1-0.2C61.7,63.4,62.1,63.4,62.1,63.5z M119.6,71.7c0.2,0.3-2.4,1.4-2.8,0.8c-1-1.6-2.1-3-2.9-4.7 c-0.2-0.4,2.5-1.4,2.8-0.8C117.5,68.7,118.6,70.2,119.6,71.7z M121.9,67.1c0.3,0.6-0.8,1.1-1.2,1.2c-0.6,0.1-1.3,0.2-1.6-0.4 c-0.4-0.8-0.8-1.6-1.2-2.3c-0.3-0.6,0.8-1.1,1.2-1.2c0.6-0.1,1.3-0.2,1.6,0.4C121.1,65.5,121.5,66.3,121.9,67.1z M7.3,43.7 c0.2,0.7-0.6,1.2-1.2,1.3c-1.5,0.4-3,0.6-4.5,1c-0.5,0.1-1.5,0.1-1.7-0.6c-0.2-0.7,0.6-1.2,1.2-1.3c1.5-0.4,3-0.6,4.5-1 C6.2,43,7.1,43,7.3,43.7z M43.7,47.5c0.3,1.4,0.8,3.2-0.4,4.3c-0.7,0.6-1.9,1-2.8,0.7c-0.8-0.2-1-0.9-0.4-1.4 c0.1-0.1-0.2-1.6-0.3-1.9c-0.2-0.8-0.2-1.6-0.2-2.5c0-2.6,0.2-5.1,0-7.7c0-0.6-0.1-1.2-0.2-1.9c-0.5,1.4-1,2.7-1.3,4.2 c-0.3,1.4-0.5,2.7-1,4c0,0.1,0.1,0.2,0.1,0.3c0.2,0.5-0.4,1-0.7,1.2c-0.3,0.2-0.5,0.3-0.8,0.4c-0.7,0.3-1.9,0.6-2.5,0 C33,47.1,32.9,47,33,46.8c-0.1-0.2,0-0.5,0.2-0.7c-0.5-1.6-0.9-3.2-1.8-4.7c-0.9-1.5-1.6-3.1-2.2-4.7c-0.1-0.1-0.1-0.3-0.2-0.4 c0,0.4,0,0.8,0,1.2c0.1,4.2,0.4,8.3,0.4,12.5c0,1.4-2.6,2-3.5,1.3c-0.2-0.2-0.4-0.3-0.6-0.6c-0.4-0.5-0.3-1,0.1-1.4 c-0.1-4-0.4-8-0.4-12c0-2.1-0.1-4.1-0.4-6.2c-0.3-1.8-0.4-3.6,0.4-5.3c0.7-1.4,4.1-1.6,3.9,0c1.7,3.3,2.9,6.8,4.3,10.3 c0.5,1.2,1.1,2.3,1.7,3.4c0.4-1.2,0.9-2.4,1.3-3.6c1.1-3.1,2-6.3,2.6-9.5c0-0.1-0.1-0.2-0.1-0.3c-0.1-0.3,0-0.7,0.4-1 c0.5-1,4-1.5,3.8-0.5c0,0.2-0.1,0.5-0.1,0.7c0.8,2.1,0.4,4.4,0.4,6.6c0,2.7,0.4,5.4,0.5,8.1C43.8,42.5,43.3,45.2,43.7,47.5z  M52.4,47.1c0.1,0.9,0.6,2.6-0.1,3.4c-0.5,0.7-1.5,0.9-2.3,1c-0.1,0-2,0.2-1.6-0.3c0.7-0.8,0-2.6-0.1-3.6c-0.2-2.1,0.1-4.2-0.1-6.3 c-0.3-2-0.8-3.9-0.7-6c0-2.1,0.2-4.3-0.2-6.4c-0.1-1,3.8-1.8,4-1.1c0.3,2.3,0.1,4.6,0.2,6.9c0,2,0.7,3.9,0.8,5.9 C52.3,42.9,52.1,45,52.4,47.1z M69.9,46.4c0.3,1.2,0.6,2.6-0.4,3.6c-0.9,0.9-2.1,1.4-3.3,1.8c-2.3,0.8-5.1,1.2-7.6,0.9 c-3.8-0.5-2.1-4-2.4-6.7c-0.2-1.2,3.8-2,4-1.1c0.2,1.6-0.9,4,0.1,5.5c0.5,0.8,1.9,0.5,2.8,0.5c0.8-0.1,2.2-0.1,2.8-0.8 c1-1.1-0.2-3.2-0.2-4.5c-0.1-2.4,1.1-7.7-2.8-8c-2.3-0.2-6.8,1.2-7.8-1.8c-0.5-1.4-0.2-2.8-0.3-4.2c-0.1-1.2-0.4-2.4-0.3-3.6 c0.1-2.6,2.6-3.8,4.8-4.4c2.4-0.6,11-1.5,9.8,3.1c-0.3,1.1-4.2,1.7-3.9,0.6c0.6-2.3-2.5-2.6-4.1-2.5c-0.4,0-0.7,0-1.1,0.1 c0,0-0.7,0.2-0.8,0.3c-0.8,0.8-0.9,1.9-0.8,2.9c0.2,1.4,0.3,2.7,0.3,4.2c0,1.1,0,3,1.4,3.4c2.7,0.8,6.6-1.3,8.6,1.6 C70.6,40,69.2,43.4,69.9,46.4z M86.7,44.6c0.1,2,0.3,4.3-0.4,6.2c-0.6,1.5-4.5,1.7-3.8-0.4c0.4-1,0.2-2.5,0.2-3.5 c0-1.2-0.1-2.3-0.2-3.5c-0.1-1.4-0.2-2.8-0.3-4.2c-2-0.3-4.1-0.1-6.1,0c-0.1,1.8-0.3,3.6-0.1,5.3c0.2,1.8,1,4.1,0.4,5.9 c-0.3,1-4.1,1.5-3.9,0.7c0.3-1,0-2.3-0.2-3.3c-0.2-1.1-0.3-2.2-0.3-3.3c0-2.2,0.2-4.3,0.3-6.5c0.1-4.5-0.6-9-0.5-13.5 c0-1.1,4-1.6,4-1.1c-0.2,4.7,0.6,9.3,0.4,14c2-0.1,3.9-0.3,5.9-0.2c0-0.1,0-0.1,0-0.2c-0.2-3.6-0.7-7.2-0.7-10.9c0-1.7,4-2.3,4-0.3 c0,3.8,0.6,7.6,0.7,11.4C86.2,39.7,86.6,42.2,86.7,44.6z M106.4,49.8c0.5,1.8-3.4,2.9-4,1.1c-0.8-2.8-2.3-5.3-3.2-8.1 c-0.5-1.6-1.2-3.1-2-4.6c-1.2,2-2.5,4-4.1,5.7c0,2.1,0,4.2-0.2,6.3c-0.1,1-2,1.4-2.7,1.4c0,0-0.1,0-0.1,0c-0.6,0-1.6-0.4-1.1-1.1 c0.2-1.8,0.2-3.5,0.2-5.3c-0.2-0.1-0.4-0.3-0.1-0.6c0,0,0,0,0-0.1c-0.1-6.9-1.1-13.8-1.3-20.8c-0.1-1.5,3.9-2.3,4-1.1 c0.2,5.6,0.9,11.2,1.2,16.8c0.9-1.5,1.7-3.1,2.5-4.7c-0.1-0.5,0.2-1,0.6-1.3c0.1-0.1,0.2-0.3,0.2-0.4c1-2,2-4.1,2.9-6.1 c0.8-1.7,1.7-3.1,3.2-4.3c0.7-0.6,1.9-0.8,2.8-0.7c0.8,0.1,0.8,0.5,0.3,1c-1.6,1.3-2.3,3.3-3.1,5.1c-0.9,2-1.9,4-3,5.9 c1.3,2.6,2.7,5.1,3.6,7.9C104.2,44.5,105.6,47.1,106.4,49.8z M47.4,24.9c-0.2-0.1-0.4-0.3-0.4-0.5c0-0.1,0-0.2,0-0.3 c0,0,0-0.1,0-0.1c-0.1-0.2-0.2-0.4-0.1-0.6c0-0.1,0.1-0.2,0.1-0.4c-0.2-1-0.1-2-0.1-3c0-0.9,1.5-1.5,2.2-1.5 c0.8-0.1,1.8,0.2,1.8,1.2c0,1.2-0.1,2.3,0.4,3.4c0.2,0.5-0.2,1-0.7,1.4c-0.1,0.1-0.2,0.1-0.3,0.2c-0.4,0.3-1,0.5-1.5,0.5 C48.3,25.2,47.8,25.2,47.4,24.9z"/><path fill="#ffffff" d="M127,37.1c-0.2-0.8-1.4-0.9-2.3-0.8c0-0.3,0-0.7,0-1c-0.1-2.7-0.2-5.4-0.4-8.1c-0.2-2.5-1.6-3.4-4-3.3 c-2.4,0.1-5.3,0.5-7.6,1.4c-2.6,1-4.1,3-4.6,5.7c-0.6,3,0.2,6.3,0.4,9.3c0.2,3.5,0.1,7.1,0.1,10.6c0,0.6,4,0,4-1.1 c0-2.8,0-5.6,0-8.4c0-0.8-0.1-1.6-0.1-2.5c1.4-0.6,3.7,0,5.1,0.1c1.1,0.1,2.2-0.2,3.3-0.3c0,2.3,0.1,4.7,0.2,7 c0,1.2,0.5,3.6-0.4,4.6c-0.4,0.5,1.5,0.3,1.6,0.3c0.8-0.1,1.8-0.4,2.3-1.1c1-1.1,0.5-3.8,0.4-5.2c-0.1-1.9-0.1-3.9-0.1-5.8 C125.9,38.7,127.2,37.9,127,37.1z M112.2,36.9c-0.1-1.3-0.2-2.5-0.3-3.8c-0.2-2.4,0.1-5.6,2.3-7.1c0.6-0.4,1.7-0.3,2.4-0.4 c1-0.2,2-0.4,2.9,0.2c1.2,0.8,0.9,3.7,0.9,4.9c0,2,0.2,4,0.3,6.1c-0.6,0.1-1.1,0.1-1.7,0.1C116.7,36.8,114.4,36.5,112.2,36.9z"/></svg>
