<svg version="1.1" xmlns="http://www.w3.org/2000/svg" width="1150" height="34" viewBox="0 0 1150 34"><path fill="#ffffff" d="M1121.3,0c-14.4,0-14.4,14-28.7,14s-14.4-14-28.7-14s-14.4,14-28.7,14c-14.4,0-14.4-14-28.8-14 c-14.4,0-14.4,14-28.7,14c-14.4,0-14.4-14-28.7-14c-14.4,0-14.4,14-28.7,14S905.6,0,891.3,0c-14.4,0-14.4,14-28.7,14 S848.1,0,833.8,0c-14.4,0-14.4,14-28.7,14c-14.4,0-14.4-14-28.8-14c-14.4,0-14.4,14-28.7,14c-14.4,0-14.4-14-28.7-14 S704.4,14,690,14c-14.4,0-14.4-14-28.7-14c-14.4,0-14.4,14-28.7,14c-14.4,0-14.4-14-28.8-14c-14.4,0-14.4,14-28.7,14 c-14.4,0-14.4-14-28.7-14c-14.4,0-14.4,14-28.7,14c-14.4,0-14.4-14-28.7-14c-14.4,0-14.4,14-28.8,14c-14.4,0-14.4-14-28.8-14 c-14.4,0-14.4,14-28.8,14c-14.4,0-14.4-14-28.8-14c-14.4,0-14.4,14-28.8,14c-14.4,0-14.4-14-28.8-14s-14.4,14-28.8,14 c-14.4,0-14.4-14-28.8-14c-14.4,0-14.4,14-28.7,14c-14.4,0-14.4-14-28.8-14c-14.4,0-14.4,14-28.8,14c-14.4,0-14.4-14-28.8-14 c-14.4,0-14.4,14-28.8,14c-14.4,0-14.4-14-28.8-14C71.9,0,71.9,14,57.5,14C43.1,14,43.1,0,28.8,0S14.4,14,0,14v20h1150V14 C1135.6,14,1135.6,0,1121.3,0z"/></svg>
