<svg version="1.1" xmlns="http://www.w3.org/2000/svg" width="300.1" height="6" viewBox="0 0 300.1 6"><path fill="#f1f1f1" d="M300.1,6c-2.3,0-3.6-1.2-4.6-2.2c-0.9-0.9-1.5-1.5-2.9-1.5c-1.4,0-2,0.6-2.9,1.5c-1,1-2.2,2.2-4.6,2.2 c-2.3,0-3.6-1.2-4.6-2.2c-0.9-0.9-1.5-1.5-2.9-1.5c-1.4,0-2,0.6-2.9,1.5c-1,1-2.2,2.2-4.6,2.2c-2.3,0-3.6-1.2-4.6-2.2 c-0.9-0.9-1.5-1.5-2.9-1.5c-1.4,0-2,0.6-2.9,1.5c-1,1-2.2,2.2-4.6,2.2s-3.6-1.2-4.6-2.2c-0.9-0.9-1.5-1.5-2.9-1.5 c-1.4,0-2,0.6-2.9,1.5c-1.1,1-2.3,2.2-4.7,2.2c-2.3,0-3.6-1.2-4.6-2.2c-0.9-0.9-1.5-1.5-2.9-1.5c-1.4,0-2,0.6-2.9,1.5 c-1,1-2.2,2.2-4.6,2.2s-3.6-1.2-4.6-2.2c-0.9-0.9-1.5-1.5-2.9-1.5c-1.4,0-2,0.6-2.9,1.5c-1,1-2.3,2.2-4.6,2.2 c-2.3,0-3.6-1.2-4.6-2.2c-0.9-0.9-1.5-1.5-2.9-1.5c-1.4,0-2,0.6-2.9,1.5c-1,1-2.2,2.2-4.6,2.2c-2.3,0-3.6-1.2-4.6-2.2 c-0.9-0.9-1.5-1.5-2.9-1.5s-2,0.6-2.9,1.5c-1,1-2.3,2.2-4.6,2.2s-3.6-1.2-4.6-2.2c-0.9-0.9-1.5-1.5-2.9-1.5c-1.4,0-2,0.6-2.9,1.5 c-1,1-2.2,2.2-4.6,2.2c-2.3,0-3.6-1.2-4.6-2.2c-0.9-0.9-1.5-1.5-2.9-1.5c-1.4,0-2,0.6-2.9,1.5c-1,1-2.2,2.2-4.6,2.2 s-3.6-1.2-4.6-2.2c-0.9-0.9-1.5-1.5-2.9-1.5s-2,0.6-2.9,1.5c-1,1-2.2,2.2-4.6,2.2s-3.6-1.2-4.6-2.2c-0.9-0.9-1.5-1.5-2.9-1.5 c-1.4,0-2,0.6-2.9,1.5c-1,1-2.2,2.2-4.6,2.2c-2.3,0-3.6-1.2-4.6-2.2c-0.9-0.9-1.5-1.5-2.9-1.5c-1.4,0-2,0.6-2.9,1.5 c-1,1-2.2,2.2-4.6,2.2c-2.3,0-3.6-1.2-4.6-2.2c-0.9-0.9-1.5-1.5-2.9-1.5c-1.4,0-2,0.6-2.9,1.5c-1,1-2.2,2.2-4.6,2.2 c-2.3,0-3.6-1.2-4.6-2.2c-0.9-0.9-1.5-1.5-2.9-1.5c-1.4,0-2,0.6-2.9,1.5c-1,1-2.2,2.2-4.6,2.2s-3.6-1.2-4.6-2.2 c-0.9-0.9-1.5-1.5-2.9-1.5c-1.4,0-2,0.6-2.9,1.5c-1,1-2.2,2.2-4.6,2.2s-3.6-1.2-4.6-2.2c-0.9-0.9-1.5-1.5-2.9-1.5 c-1.4,0-2,0.6-2.9,1.5c-1,1-2.2,2.2-4.6,2.2s-3.6-1.2-4.6-2.2c-0.9-0.9-1.5-1.5-2.9-1.5c-1.4,0-2,0.6-2.9,1.5C33.6,4.8,32.4,6,30,6 s-3.6-1.2-4.6-2.2c-0.9-0.9-1.5-1.5-2.9-1.5c-1.4,0-2,0.6-2.9,1.5c-1,1-2.2,2.2-4.6,2.2s-3.6-1.2-4.6-2.2C9.6,3,8.9,2.3,7.5,2.3 c-1.4,0-2,0.6-2.9,1.5C3.6,4.8,2.3,6,0,6V3.7c1.4,0,2-0.6,2.9-1.5c1-1,2.2-2.2,4.6-2.2c2.3,0,3.6,1.2,4.6,2.2C13,3,13.6,3.7,15,3.7 c1.4,0,2-0.6,2.9-1.5c1-1,2.2-2.2,4.6-2.2s3.6,1.2,4.6,2.2C28,3,28.6,3.7,30,3.7c1.4,0,2-0.6,2.9-1.5c1-1,2.2-2.2,4.6-2.2 s3.6,1.2,4.6,2.2C43,3,43.6,3.7,45,3.7c1.4,0,2-0.6,2.9-1.5c1-1,2.2-2.2,4.6-2.2s3.6,1.2,4.6,2.2C57.9,3,58.6,3.7,60,3.7 c1.4,0,2-0.6,2.9-1.5c1-1,2.2-2.2,4.6-2.2C69.8,0,71,1.2,72,2.2C72.9,3,73.6,3.7,75,3.7c1.4,0,2-0.6,2.9-1.5c1-1,2.2-2.2,4.6-2.2 S86,1.2,87,2.2c0.9,0.9,1.5,1.5,2.9,1.5c1.4,0,2-0.6,2.9-1.5c1-1,2.2-2.2,4.6-2.2c2.3,0,3.6,1.2,4.6,2.2c0.9,0.9,1.5,1.5,2.9,1.5 s2-0.6,2.9-1.5c1-1,2.2-2.2,4.6-2.2c2.3,0,3.6,1.2,4.6,2.2c0.9,0.9,1.5,1.5,2.9,1.5c1.4,0,2-0.6,2.9-1.5c1-1,2.2-2.2,4.6-2.2 s3.6,1.2,4.6,2.2c0.9,0.9,1.5,1.5,2.9,1.5c1.4,0,2-0.6,2.9-1.5c1-1,2.2-2.2,4.6-2.2c2.3,0,3.6,1.2,4.6,2.2c0.9,0.9,1.5,1.5,2.9,1.5 c1.4,0,2-0.6,2.9-1.5c1-1,2.2-2.2,4.6-2.2c2.3,0,3.6,1.2,4.6,2.2c0.9,0.9,1.5,1.5,2.9,1.5c1.4,0,2-0.6,2.9-1.5c1-1,2.2-2.2,4.6-2.2 s3.6,1.2,4.6,2.2c0.9,0.9,1.5,1.5,2.9,1.5c1.4,0,2-0.6,2.9-1.5c1-1,2.2-2.2,4.6-2.2c2.3,0,3.6,1.2,4.6,2.2c0.9,0.9,1.5,1.5,2.9,1.5 c1.4,0,2-0.6,2.9-1.5c1-1,2.2-2.2,4.6-2.2c2.3,0,3.6,1.2,4.6,2.2c0.9,0.9,1.5,1.5,2.9,1.5c1.4,0,2-0.6,2.9-1.5 c1.3-1,2.5-2.2,4.9-2.2c2.3,0,3.6,1.2,4.6,2.2c0.9,0.9,1.5,1.5,2.9,1.5s2-0.6,2.9-1.5c1-1,2.2-2.2,4.6-2.2s3.6,1.2,4.6,2.2 c0.9,0.9,1.5,1.5,2.9,1.5c1.4,0,2-0.6,2.9-1.5c1-1,2.2-2.2,4.6-2.2c2.4,0,3.6,1.2,4.6,2.2c0.9,0.9,1.5,1.5,2.9,1.5 c1.4,0,2-0.6,2.9-1.5c1-1,2.2-2.2,4.6-2.2c2.3,0,3.6,1.2,4.6,2.2c0.9,0.9,1.5,1.5,2.9,1.5c1.4,0,2-0.6,2.9-1.5c1-1,2.2-2.2,4.6-2.2 c2.3,0,3.6,1.2,4.6,2.2c0.9,0.9,1.5,1.5,2.9,1.5c1.4,0,2-0.6,2.9-1.5c1-1,2.2-2.2,4.6-2.2c2.3,0,3.6,1.2,4.6,2.2 c0.9,0.9,1.5,1.5,2.9,1.5L300.1,6L300.1,6z"/></svg>
