<svg xmlns="http://www.w3.org/2000/svg" width="100.7" height="76.9" viewBox="0 0 100.7 76.9"><path fill="#63d1bb" d="M97 18.1s-.9-7-3.8-10.1c-3.6-4-7.7-4.1-9.5-4.3-13.3-1-33.3-1-33.3-1h-.1s-20 0-33.3 1c-1.9.3-5.9.3-9.6 4.4-2.8 3.1-3.8 10.1-3.8 10.1s-.9 8.2-.9 16.4v7.7c0 8.2.9 16.4.9 16.4s.9 7 3.8 10.1c3.6 4 8.4 3.9 10.5 4.3 7.6.8 32.4 1 32.4 1s20 0 33.3-1c1.9-.2 5.9-.3 9.5-4.3C96 65.7 97 58.7 97 58.7s.9-8.2.9-16.4v-7.7c0-8.2-.9-16.5-.9-16.5z"/><path fill="#fff" d="M50.3 76.9c-1 0-25-.3-32.6-1h-.2c-.3-.1-.7-.1-1.1-.2-2.5-.3-7.2-.9-10.8-5C2.1 67 1.1 59.9 1 59c0-.3-1-8.5-1-16.7v-7.7c0-8.3.9-16.4.9-16.7v-.1C1 17 2.1 9.9 5.4 6.2c4-4.4 8.5-4.9 10.7-5.1.2 0 .4 0 .5-.1h.1C30 0 50.1 0 50.3 0h.1c.2 0 20.2 0 33.5 1h.1c.2 0 .3 0 .5.1 2.2.2 6.7.7 10.7 5.1 3.4 3.6 4.4 10.8 4.5 11.6 0 .3 1 8.5 1 16.8v7.7c0 8.3-.9 16.4-1 16.7v.1c-.1.8-1.2 8-4.5 11.6-4 4.4-8.5 4.9-10.7 5.1-.2 0-.4 0-.5.1h-.1c-13.3 1-33.4 1-33.6 1zm-31.9-6.5c7.5.7 31.2 1 32 1 .7 0 20.1 0 33-1 .2 0 .4 0 .6-.1 1.8-.2 4.6-.5 7.2-3.3 1.8-2 2.9-6.9 3.1-8.6.1-.5.9-8.4.9-16.1v-7.7c0-7.8-.9-15.6-1-16.1-.3-2.4-1.4-6.8-3.1-8.5-2.6-2.9-5.4-3.1-7.2-3.3-.2 0-.4 0-.6-.1-13.1-1-32.8-1-33-1h-.1c-.2 0-20 0-33 1-.2 0-.4 0-.6.1-1.8.1-4.5.3-7.1 3.2-1.8 2-2.9 6.9-3.1 8.6-.1.6-.9 8.4-.9 16.1v7.7c0 7.7.9 15.6.9 16.1.3 2.4 1.4 6.8 3.1 8.5 2.3 2.6 5.3 3 7.5 3.3.5.1.9.1 1.4.2z"/><path fill="#fff" d="M38.4 20.6v35.7l29.8-17.9z"/></svg>