<svg xmlns="http://www.w3.org/2000/svg" width="62" height="62" viewBox="0 0 62 62"><path fill="#149080" d="M1 44.9l27.4 15.9V37.5L1 21.5v23.4zm51.3-31.3v2.5c0 1.8-3.5 3.3-7.7 3.3-4.3 0-7.7-1.5-7.7-3.3V12c.3 1.7 3.6 3.1 7.7 3.1 4.3 0 7.7-1.5 7.7-3.3s-3.5-3.3-7.7-3.3h-1l-5-2.9v3.1c0 1.8-3.5 3.3-7.7 3.3-2.7 0-5-.6-6.4-1.5-.2-.1-.5-.3-.8-.5-.4-.4-.6-.8-.6-1.2v-3l-4.8 2.8h-1.1c-4.3 0-7.7 1.5-7.7 3.3s3.5 3.3 7.7 3.3c4.1 0 7.4-1.4 7.7-3.1v4.1c0 1.8-3.5 3.3-7.7 3.3-4.3 0-7.7-1.5-7.7-3.3v-2.4l-6 3.5 27.5 16 27.5-16.1-6.2-3.6zM38.7 23.8c0 1.8-3.5 3.3-7.7 3.3-4.3 0-7.7-1.5-7.7-3.3v-4.1c.3 1.7 3.6 3.1 7.7 3.1s7.4-1.4 7.7-3.1v4.1zm-5.1 13.9v23.1L61 44.9V21.7l-27.4 16zM30.9 7.8c4.3 0 7.7-1.5 7.7-3.3s-3.5-3.3-7.7-3.3c-4.3 0-7.7 1.5-7.7 3.3 0 1.8 3.4 3.3 7.7 3.3"/></svg>