<svg xmlns="http://www.w3.org/2000/svg"><symbol viewBox="0 0 50 26" id="arrow-next"><path d="M0 11h42.3l-8.1-8.2L37 0l13 13-13 13-2.8-2.8 8.1-8.2H0z"/></symbol><symbol viewBox="0 0 50 26" id="arrow-prev"><path d="M50 11H7.7l8.1-8.2L13 0 0 13l13 13 2.8-2.8L7.7 15H50z"/></symbol><symbol viewBox="0 0 20.3 18.8" id="icon-cart"><path d="M19.5 7.2h-3.2L13 .4c-.2-.4-.6-.5-1-.3s-.5.6-.3 1l3.1 6.1H5.6l3.1-6.1c.2-.4 0-.8-.3-1s-.8 0-1 .3L3.9 7.2H.8c-.5 0-.8.4-.8.8s.3.7.8.7H1l.9 3c-.2.1-.3.3-.3.6 0 .4.3.7.7.7L4 18.8h12.7l1.7-5.8c.4 0 .7-.3.7-.7 0-.2-.1-.5-.3-.6l.9-3h.2c.4 0 .8-.3.8-.7-.4-.4-.7-.8-1.2-.8zm-4.1 10.1H4.9L3.7 13h12.9l-1.2 4.3zm1.6-5.7H3.3l-.8-2.9h15.4l-.9 2.9z"/></symbol><symbol viewBox="0 0 15 27.7" id="icon-fb"><path d="M11.7 5.2c1 0 2 0 2.7-.3.4-.8.6-1.9.6-3-.2 0-.1-.3-.2-.4 0-.2-.3-.2-.3-.4-.3-.2-.5-.4-.7-.6-.8-.2-1.5-.3-2.2-.5-.8 0-1.9-.1-2.6.1-2.6 0-4 1.1-5.3 2.4 0 .1 0 .2-.1.2-.6 1.6-.1 3.6-.2 5.6.1.4.1 1 .2 1.4-1 .3-2.2.4-3.4.5-.3.3-.2 1.1-.2 1.7.1.6.3 1.1.4 1.6.2.2.6.4.8.5.1 0 .1.1.1.1.5.3 1.5 0 2.3.1-.1 2 .3 3.9 0 5.7 0 .3.3.4.2.8 0 1-.1 2 .2 2.7-.3.5-.5 1-.4 1.8.1 0 .1.2.1.3-.1.5.6.2.5.7.2.5-.4.2-.4.5v.9c.5.3 1.5.2 2.3.2.9-.4 2.2-.5 2.8-1.2.5.2.9 0 1.2-.2 0-.3.3-.3.2-.7 0-.3-.2-.5-.1-.9v-2.9c-.2-2.3 0-4.9-.3-7.2.9-.1 1.9-.1 2.6-.4.4-.5.4-1.2.5-1.9.2-.2.2-.6.2-1 .2-.2.1-.7.1-1.1-.1-.6-.2-1.3-.8-1.4-.9-.2-2 .6-3 .3 0-1.1-.3-2.3 0-3.4.7-.2 1.4-.4 2.2-.6zM7.8 10c.1.3.3.5.4.7.1 0 .2 0 .2.1 1.2.1 2.2-.1 3.1-.3 0 1-.3 1.7-.5 2.5-.7 0-1.5.3-2 .2-.3.2-.4.5-.6.7 0 .4.1.5 0 .8-.2.1-.1.6-.2.8V17c.1.3-.1.3-.1.5V21c-.1.3.1.3.1.5v3c.1.3-.1.8.1.9-.1.4-.4 0-.8.1-.5 0-.9.3-1.5.3.1-.4.3-.6.3-1.1 0-.4-.4-.3-.5-.5.2-.6.6-1.1.7-1.8.2-.5.7-1.3.3-1.8-.5-.1-.5.3-.8.4 0 .1 0 .2-.1.2 0 .1 0 .2-.1.2 0 .1-.2.1 0 0 0-.1 0-.2.1-.2 0-.1 0-.2.1-.2v-.3c.4-.6.7-1.2.8-2 .2-.3.3-.7.4-1 .2-.3.3-.9.1-1.2-.5 0-.8.3-.9.7-.3-.2.2-.4.1-.7.1-.2.2-.6.3-.8.2-.4.6-1.3 0-1.6-.4 0-.6.2-.7.5-.2.2-.4.4-.5.7-.4-.1-.1-.7-.2-1.1-.1-.5.1-.9 0-1.2-.6-.8-2-.1-3.2-.3-.1-.3-.2-1-.1-1.2 1-.1 2.5.2 3.2-.2 0-.1 0-.2.1-.2.1-.7-.3-1-.5-1.4.2-.8 0-2 .1-3 .2-.1.3-.4.5-.6.1-1 .7-1.5.7-2.5-.3 0-.6-.1-.6.2-.3 0-.4.6-.5.3-.1-.5.2-.6.3-1l1.8-1.2c1.7-.2 4.6-.4 6.1.2.1.6-.3.9-.2 1.5h-1.5c-1.1.2-2 .7-3 1-.3.1-.3.3-.5.4 0 .4-.2.6-.3 1-.1 1.4.1 2.6 0 4z"/></symbol><symbol viewBox="0 0 21.8 21.3" id="icon-instagram"><path d="M21.8 12.1c0-2.4-.3-4.8-.3-7.1 0-.8-.1-1.5-.2-2.3-.1-.3-.1-.7-.2-1.1-.3-.2-.2-.6-.5-.8-.4-.2-1.2-.1-1.7-.2-.7 0-1.3-.1-1.9-.2-1.9-.1-4-.1-6-.1S7 .2 5.3-.1H3.2c-.1.1-.1.2-.3.2-.6 0-1.1.2-1.6.3L.7.7C.5.9.1.8.1 1.1c-.2.2.2.5 0 .6v.9c.2.1 0 .6.1.8v1c0 1.3.1 2.4.1 3.7.5 2.8.4 6.5.1 9.4.2.6.4 1.1.5 1.7.3.5.3 1.1.7 1.5.3.3 1.1.3 1.7.3.4.1.7.3 1.1.3 2.8-.2 5.5-.2 8.4-.2 2.7.2 5.8.2 8.3-.2.2-.1.1-.5.2-.8-.1-.4.2-.4.2-.8.2-2.3.3-4.7.3-7.2zm-13-6.2c.8-.2 1.5-.3 2.4-.3.7.1 1.3.3 1.9.5.1.2-.2.5.2.7v.1c.1 0 .1 0 .2.1.4 0 .8.2 1.1.4.4.1.5.5 1.1.3-.1.2-.1.5-.1.8.3 1.2.5 2.8.3 4.3-.2.2-.2.4-.3.7-.3.3-.5.8-.8 1.1-.1.2-.3.4-.5.5-.1.2-.2.5-.5.5-.3.2-.6 0-.8-.1-.4.2-.9.3-1.2.6l-2.4-.3c-.2-.1-.5-.3-.8-.3-.3-.3-.6-.5-1-.6-.1-.1-.3-.1-.5-.2-.2 0-.2-.2-.5-.2-.1-.4-.4-.6-.5-1.1-.2-.3-.3-.8-.5-1.2 0-1.4.1-2.7.4-3.8.3-.6.8-1.1 1.1-1.7.2 0 .4-.1.4-.3.3.1.4-.1.7-.1.4.1.4-.2.6-.4zM7.1 3.2C7 2.9 7 2.5 7 2.1c0-.3.3-.3.3-.5 0-.1-.1-.1-.2-.1.1-.1.7-.1.8 0 .3.5-.2.5-.4.7 0 .2.3 0 .5.1 0 .9-.1 1.5 0 2.2h-.5c0 .2.2.2.5.2-.1.3 0 .4 0 .6-.2.2-.7 0-1 .1-.1-.6.2-1.4.1-2.2zm-.7-1.6c.1 0 .1 0 .2.1.2.3 0 .7-.1.9-.2-.2 0-.7-.1-1zm.2 1.8c-.2-.1-.2-.2-.2-.4.2 0 .2.2.2.4zm0 1.4c-.1.1-.1 0-.1-.2.1-.1.1.1.1.2zm-.2.2c.2 0 .1.2.2.2 0 .2-.3.2-.4.1.1-.1.2-.2.2-.3zM4.1 3.8c0-.1 0-.2-.1-.2-.1-.7.1-1.4 0-2 .3-.2.8 0 1.1-.1v1.1c0 .1-.2.1-.3.1-.1.3.3.2.3.3 0 .9-.1 1.8.2 2.4-.6 0-.9.2-1.5.1.1-.6 0-1.4.5-1.6.1-.1-.2 0-.2-.1zm-.6 0c-.2 0-.2-.5-.1-.6.4 0 .3.5.1.6zm-.1 1c.1-.3 0-.3.1-.7.2 0 .2.8-.1.7zm.2-2.1c-.2.1-.3-.2-.1-.4.2 0 .2.3.1.4zm0-1.1c0 .2-.1.2-.1.3-.2 0-.1-.2-.2-.2 0-.1.2-.1.3-.1zm-.2 3.7c.1 0 .1.3-.1.2.1 0 .1-.1.1-.2zm-.7-3.7c0 .3-.4.3-.4 0h.4zm-1 .1c0 .2-.3.2-.4.4-.2-.2.1-.5.4-.4zm-.4.7c.2-.2.4-.4.7-.6-.1-.1 0-.1 0-.2h.2c.2.4-.2.3-.2.5 0 .1-.1.1-.1.2 0 .3.1.6.1 1-.3 0-.3.3-.6.2 0-.4-.2-.6-.1-1.1zm0 3.3V4.1c.2-.2.4-.4.6-.5.3.4.2 1.4.5 1.9-.3.1-.7.1-1.1.2zm18.3 11.1c-.1 1-.2 2-.4 2.8-2.9.1-6 0-8.9.2-.2 0-.3 0-.2-.2-.3 0-.3.2-.5.2.2-.3.4-.9.2-1.3-.8 0-.8.8-1.1 1.3-.7-.1-1.1.1-1.8.1.2-.7.8-1 .9-1.7-.4-.6-1 .1-1.2.5-.2.5-.6.8-.8 1.3h-1c.2-.5.5-.9.8-1.4.2-.5.6-.7.7-1.4-.2-.3-.4 0-.7 0-.1.2-.3.3-.4.5-.2.4-.5.7-.7 1.1-.3.2-.5-.1-.7.2-.4.3-.6.7-1 1-.2-.1 0-.4.2-.4 0-.2-.1-.6.1-.6.1-.4.2-.6.4-.9.1-.7.5-1.2.7-1.9-.6.1-.7.6-1 1-.2.4-.5.8-.7 1.3-.2-.1 0-.6-.1-.8.1-.6.3-1.1.4-1.7.1-.4.2-.7.2-1 .2-.2 0-.6-.1-.8-.2 0-.4.1-.5.3-.2 0-.2.5-.3.3 0-2.6-.5-4.8-.5-7.4 0-.3-.2-.4-.2-.7 1.6 0 3.1.1 4.8.2 0 .2-.1.3-.2.5-.2 0-.3.1-.4.3-.6 1.7-1 4-.6 6.2.2.6.6 1 1 1.4.9.5 1.6 1.1 2.5 1.7 1.7.4 3.8.4 5.5 0 .2-.1.5-.2.7-.4 1.4-1.2 2.8-2.5 3-4.9v-1.4c-.2-1.6-.7-2.9-1.7-3.6.3-.2 1.1 0 1.7.1h.7c.4 0 .9-.1 1.4 0 .1.2.1.5.2.8-.1 1.7-.2 3.3-.2 5.1.1.5.1 1 .2 1.4-.1.9-.2 1.8-.4 2.7zm.3-11.2c-.6-.1-1.2-.3-1.9-.4.1-.3.8 0 1-.2.4-.2.3-.9.3-1.5 0-.3.1-.6.1-1.1-.4-.9-1.8-.4-2.9-.4-.2.7-.5 1.8-.3 2.7.2.5 1 .3 1.5.5-.1.3-.7.1-1 .1-.3-.1-.7-.1-1-.2-2.3.1-4.3 0-6.5.2.1-1.2.1-2.5-.1-3.6h3.1c-.3.2-.8.3-1.2.7-.4.2-.9.5-1.1.9.2.1.5-.2.8-.4.4-.1.5-.4.8-.5.4-.4 1.1-.6 1.7-.9.4 0 .7 0 1 .1 1.3 0 2.5.1 3.8.1.6.1 1.4.1 2 .3l.3.9c-.1 1-.3 1.8-.4 2.7zm-5.8-3.7c.1-.1 0-.1 0 0zm0 0c-.5.2-1 .3-1.4.7.5-.2 1.1-.3 1.4-.7zm1.1.6c.1 0 0-.1 0 0zm-1.8.9c.7-.2 1.2-.6 1.7-.9-.4 0-.6.3-1 .4-.1.2-.5.2-.7.5zm-.7-.8c-.1 0 0 .1 0 0zm-.7.6c.2-.1 0-.1 0 0zm0 .1s0-.1 0 0c0-.1 0-.1 0 0zm-.1 0c.1 0 .1 0 0 0 0-.1 0 0 0 0zm-.8.6c.3-.1.6-.3.8-.6-.4.2-.6.4-.8.6zm2.2 1c.5 0 .7-.4 1.2-.5.3-.3.8-.4 1-.8-.6 0-.8.4-1.2.5-.3.4-.7.5-1 .8zm-2.2-1c-.4 0-.1.3 0 0zm-.6.4s.1 0 0 0c.1-.1 0 0 0 0zm2.8.6c-.1.1 0 .1 0 0zm-1.1 1.8c-.2-.2-.7-.2-1-.4-.7 0-1.2.1-1.7.2l-.9.6c-.3.1-.5.4-.8.5-.2.2-.4.5-.7.6 0 .2-.2.3-.3.4-.1.1-.1.3-.2.4 0 .1 0 .3-.1.3.1 1.5.3 2.9.7 4.2.3.6 1 .8 1.4 1.3.6.3 1.3.4 2.1.5.3-.1.6-.1.9-.1 1.2-.2 2.1-.7 2.8-1.4.1-.3.3-.5.5-.7-.3-.7.3-1.1.5-1.6 0-1.3-.2-2.5-.6-3.4-.3-.6-.9-.8-1.4-1.1-.1 0-.2 0-.2-.1-.2-.2-.7-.3-1-.2zm-3.4 4.4c-.1-.1-.1-.2-.2-.4.3-.1.1.2.2.4zm.1.3c0-.1 0 0 0 0 0 .2 0 .1 0 0zm.4-2.1c0-.1.1 0 0 0 .1.1 0 .1 0 0zM11 7.2c-.2.3 0 .6.1.8-.3 0-.6-.8-.1-.8zm.4 4c-.1-.1 0-.1 0 0 .1-.1 0 0 0 0zm.7 2.8c0-.1.1 0 .2 0 0 .1-.2.1-.2 0zm2.2-2.5c-.2-.1-.1.2-.4.2.1-.2.1-.3.2-.5.2 0 .2.1.2.3zm-1.1-3.8c.2.1.4.2.6.4.1.2.2.4.4.5.1.8.2 1.5.2 2.4-.3.1-.4.3-.7.4-.8 0-1.4-.2-1.9-.5-.2-.3-.4-.5-.5-.8V9c.2-.2.3-.4.5-.6.2-.1.5-.2.5-.6 0-.1-.1-.1-.1-.2.2 0 .2.2.4.2.1 0 .2-.2.6-.1z"/></symbol><symbol viewBox="0 0 32 21" id="icon-mail"><path d="M28 0H4C1.8 0 0 1.8 0 4v13c0 2.2 1.8 4 4 4h24c2.2 0 4-1.8 4-4V4c0-2.2-1.8-4-4-4zM2 5.3l7 5.3-7 5.3V5.3zM30 17c0 1.1-.9 2-2 2H4c-1.1 0-2-.9-2-2l7.8-5.9 4.4 3.3c.5.4 1.2.6 1.8.6.6 0 1.3-.2 1.8-.6l4.4-3.3L30 17zm0-1.2l-7-5.3 7-5.3v10.6zm-12.8-2.2c-.4.3-.8.4-1.2.4s-.9-.1-1.2-.4l-4.1-3.1-.9-.6L2 4c0-1.1.9-2 2-2h24c1.1 0 2 .9 2 2l-12.8 9.6z"/></symbol><symbol viewBox="0 0 24.8 24.3" id="icon-phone"><path d="M17.3 24.3h-1.1c-4.9-.6-8.5-2.9-11.1-5.8C2.5 15.6.4 11.9 0 6.8V5.4c.1-.9.5-1.5 1.1-2.1.6-.7 1.6-1.5 2.5-1.6.7 0 1.8.5 2.2 1.1.4.5.6 1.6.8 2.4.2.9.6 2 .5 2.8-.2 1.2-1.8 1.7-2.2 2.6 1.6 3.7 4.1 6.5 7.5 8.3.8-.5 1.6-1.9 2.8-1.9.4 0 1 .2 1.4.3.5.1.9.3 1.3.5.7.3 2 .6 2.4 1.2.4.6.7 1.6.6 2.2-.3 1.3-2.4 2.7-3.6 3.1zM12.5 1.5c5.9 0 10.8 4.8 10.8 10.8h1.5C24.8 5.5 19.3 0 12.5 0v1.5zm0 7.8v1.6c.8 0 1.4.6 1.4 1.4h1.6c0-1.6-1.3-3-3-3zm0-3.1c3.3 0 6.1 2.7 6.1 6.1h1.6c0-4.2-3.4-7.6-7.6-7.6v1.5z"/></symbol><symbol viewBox="0 0 17.6 17.6" id="icon-search"><path d="M17.3 15.7l-3.4-3.4c1-1.3 1.5-2.9 1.5-4.6C15.4 3.4 12 0 7.7 0S0 3.4 0 7.7s3.4 7.7 7.7 7.7c1.7 0 3.3-.6 4.6-1.5l3.4 3.4c.2.2.4.3.8.3.6 0 1.1-.5 1.1-1.1 0-.2-.1-.5-.3-.8zm-15.1-8c0-3 2.5-5.5 5.5-5.5s5.5 2.5 5.5 5.5-2.5 5.5-5.5 5.5-5.5-2.5-5.5-5.5z"/></symbol><symbol viewBox="0 0 23 19.7" id="icon-twitter"><path d="M23 4c-.2-.4-.9-.3-1.4-.4h-1.1c.1-.3.3-.6.5-.9.1-.4.2-.7.2-1.2l.3-.6c.1-.1.2-.5.1-.7-.1-.2-.3-.2-.6-.2-.1 0-.2.1-.2.1-.4.4-.8 1-1.2 1.4h-.1c-.1 0 0 0-.1.1s-.3.1-.4.2c-.3.2-.5.4-.9.5-.5-.2-1.1-.3-1.7-.3-1.1.1-2.3.2-3 .7-.9.3-1.4 1-2.1 1.6 0 .3-.3.4-.4.7 0 0 0 .1-.1.1 0 .2 0 .3-.1.5 0 .1.2.4 0 .5-.7-.1-1.4-.6-2-.9-.7-.4-1.5-.6-2.1-1.1-.7-.3-1.2-.8-1.7-1.3-.2-.3-.5-.5-.7-.9-.3-.2-.1-.9-.7-.9-.3 0-.3.2-.4.4-.1.2-.4.2-.4.5 0 0 0 .1-.1.1-.1 1-.5 1.9-.5 3.2.1.4.3.7.6 1-.4 0-.7.2-.9.5 0 1 .4 1.6.8 2.2.1.4.3.7.6.9 0 .2.2.3.3.4 0 .1.1.1.1.2s.3.2.1.2c-.4.1-1 .1-1.2.4-.1.3-.1.8 0 1.1 0 .2.3.3.3.5.5.4 1.1.7 1.6 1.1.6.2 1.2.3 1.8.4-.1.3-.3.5-.6.7-.8.4-1.8.5-2.7.7-.5 0-.9.2-1.5.2-.4.2-.9.2-1.1.3l-.2.2c-.1.4.1.7.4.9 0 .2.2.3.4.4.1.2.2.3.4.4.5.5 1.2.7 1.9 1.1.8.2 1.6.4 2.5.5.9.1 1.9.1 2.8.2h.9c.5.1 1.2.1 1.8.1.1-.1.3-.1.5-.1.5-.3 1.2-.4 1.6-.7.6-.2 1-.6 1.5-.9.8-.7 1.9-1.3 2.5-2.3.2-.2.3-.4.4-.7.3-.2.4-.4.6-.7.4-.4.7-.9 1-1.4l.9-1.5c0-.4.3-.5.3-.9.2-.2.2-.6.4-.9 0-.2 0-.4.1-.6 0-1.3 0-2.4-.3-3.3.6-.2 1.2-.3 1.6-.6.4-.1.8-.5.7-1.2zm-3.4 4c-.1.8-.6 1.4-1 2 .1.4-.1.5-.1.9-.2.3-.3.6-.4 1-.2.3-.3.6-.5.9l-1.2 1.5c-.4.5-.9.9-1.3 1.4-.4.5-.9.9-1.4 1.3-.5.2-.9.4-1.2.7-.2.1-.5.2-.7.3-.2.1-.5.1-.7.3-1.1.1-2.3.2-3.5.1-1-.1-2.1-.2-3-.4-.9-.2-1.5-.7-2.2-1 .1-.2.6-.2.9-.2 0-.2.4 0 .4-.1.3.1.3-.1.5-.1.8-.3 1.5-.4 1.9-.6.3-.1.4-.4.7-.6 0-.2.1-.3.2-.4 0-.3.2-.4.1-.8.1-.2.3-.3.3-.7-.1-.1-.1-.3-.3-.4 0-.2-.4-.1-.4-.2-.2 0-.4 0-.6-.1-.2 0-.5.1-.5-.1-.8 0-1.3-.4-1.8-.7.4-.3 1-.3 1.3-.7.5-.1 1-.1 1.1-.7 0-.7-.8-.6-1.3-.8-.8-.6-1.2-1.6-1.7-2.4.2-.1.5-.2.7-.4.4 0 .5-.3.6-.5.1-.5-.3-.6-.5-.8-.3-.2-.5-.5-.7-.8 0-.8 0-1.6.1-2.3.1 0 .1 0 .1.1.2.4.5.7.7 1.2.5.3.9.8 1.5 1.1.4.4 1.1.6 1.5 1 .7.2 1.2.5 1.8.8.7.2 1 .7 2 .6l.6-.3c.3-.4-.1-1.1.1-1.6.2-.6.8-1 1.2-1.4.3-.2.5-.3.8-.5.3-.1.7-.2.9-.4.4 0 .7-.1 1-.1h1.2c.2.1.5.1.7.1.2.1.4.3.7.4.8.7 1.2 1.7 1.4 3-.1.4.1.8 0 1.4zm.3-5.5c-.1.3-.2.7-.6.8 0-.1-.1-.1-.1-.2 0-.2.2-.2.3-.3.1-.1.2-.3.4-.3 0-.1.1-.1 0 0zm-5.4 2.9c.2.1.3.3.5.4.1.2.3.3.6.4.1-.2.4-.1.4-.2.2 0 .2-.2.3-.3 0-.5-.1-1-.4-1.3-.7-.5-1.6 0-1.4 1z"/></symbol><symbol viewBox="0 0 101.6 34.1" id="logo-footer"><path d="M19.1 28.8c.3 1.4.8 3.1-.4 4.2-.7.6-1.9.9-2.8.7-.8-.2-1-.9-.4-1.4.1-.1-.2-1.5-.3-1.9-.2-.8-.2-1.6-.2-2.5 0-2.6.2-5.1 0-7.6 0-.6-.1-1.2-.2-1.9-.5 1.4-1 2.7-1.3 4.1-.3 1.3-.5 2.7-1 3.9 0 .1.1.2.1.3.2.5-.4.9-.7 1.2-.3.2-.5.3-.8.4-.7.3-1.9.6-2.5 0-.2-.1-.3-.2-.3-.4-.1-.2 0-.5.2-.7-.5-1.6-.9-3.2-1.8-4.7s-1.5-3-2.2-4.7c-.1-.1-.1-.3-.2-.4v1.2c.4 4.4.7 8.5.7 12.6 0 1.4-2.6 2-3.5 1.3-.2-.2-.4-.3-.6-.5-.4-.5-.3-1 .1-1.4-.1-4-.4-7.9-.4-11.9 0-2.1-.1-4.1-.4-6.1-.3-1.9-.4-3.6.4-5.3.7-1.4 4.1-1.6 3.9 0 1.7 3.3 2.9 6.8 4.3 10.2.5 1.2 1.1 2.3 1.6 3.4.4-1.2.9-2.3 1.3-3.5 1.1-3.1 2-6.2 2.6-9.4 0-.1-.1-.2-.1-.3-.1-.3 0-.7.4-1 .5-1 4-1.5 3.8-.5 0 .2-.1.5-.1.7.7 2.1.4 4.3.4 6.5 0 2.7.4 5.4.5 8 0 2.5-.5 5.1-.1 7.4zm8.4-6.6c-.1-2-.8-3.9-.8-5.9 0-2.3.2-4.6-.2-6.9-.1-.7-4.1.1-3.9 1 .3 2.1.2 4.2.2 6.4 0 2 .5 3.9.7 5.9.3 2.1-.1 4.2.1 6.2.1 1 .8 2.7.1 3.6-.4.5 1.5.3 1.6.3.8-.1 1.8-.4 2.3-1 .7-.8.2-2.4.1-3.4-.3-2-.1-4.2-.2-6.2zm16.3-3.3c-2.1-2.8-5.9-.8-8.6-1.5-1.4-.4-1.4-2.3-1.4-3.4 0-1.4-.1-2.7-.3-4.1-.1-1.1 0-2.1.7-2.9.1-.1.9-.3.8-.3.4-.1.7-.1 1.1-.1 1.5-.1 4.6.2 4 2.5-.3 1 3.6.4 3.9-.6 1.2-4.6-7.3-3.7-9.7-3.1-2.2.6-4.6 1.8-4.8 4.4-.1 1.2.3 2.4.3 3.6.1 1.4-.2 2.8.3 4.1 1.1 3 5.5 1.6 7.8 1.7 3.8.3 2.7 5.5 2.7 7.9 0 1.3 1.2 3.4.2 4.5-.6.7-2 .7-2.8.8-.8.1-2.2.3-2.7-.5-1-1.4.1-3.8-.1-5.4-.1-.9-4.1-.1-3.9 1 .3 2.6-1.4 6.1 2.4 6.6 2.4.3 5.2-.2 7.5-.9 1.2-.4 2.3-.9 3.2-1.8 1-.9.7-2.3.4-3.5-.5-3.1.9-6.5-1-9zm17.4-.2c-.1-3.8-.7-7.5-.7-11.3 0-2-4-1.3-4 .3 0 3.6.5 7.2.7 10.8v.2c-1.9 0-3.9.2-5.9.2.2-4.6-.6-9.2-.4-13.9 0-.6-3.9-.1-3.9 1-.2 4.5.6 8.9.5 13.4-.1 2.1-.2 4.3-.3 6.4 0 1.1.2 2.2.3 3.3.1 1 .5 2.3.2 3.3-.2.8 3.6.3 3.9-.7.5-1.8-.2-4-.4-5.8-.2-1.7 0-3.5.1-5.2 2-.1 4.1-.3 6.1 0 .1 1.4.2 2.8.3 4.1.1 1.2.2 2.3.2 3.5 0 1 .1 2.5-.2 3.5-.8 2.1 3.1 1.9 3.7.4.7-1.9.5-4.2.4-6.2-.2-2.5-.6-4.9-.6-7.3zm16.9 4.4c-.9-2.8-2.4-5.2-3.6-7.8 1-1.9 2-3.9 2.9-5.9.8-1.8 1.4-3.8 3.1-5.1.6-.4.6-.9-.3-1-.9-.1-2.1.2-2.8.7C76 5.3 75 6.7 74.3 8.4c-.9 2.1-1.9 4.1-2.9 6.1-.1.1-.1.3-.2.4-.5.3-.8.8-.6 1.3-.8 1.6-1.6 3.1-2.5 4.6-.3-5.5-1-11.1-1.2-16.6 0-1.3-4-.5-3.9 1 .2 6.9 1.2 13.7 1.3 20.6v.1c-.3.3-.2.5.1.6 0 1.8-.1 3.5-.2 5.3-.5.7.5 1.1 1.1 1.1h.1c.7 0 2.6-.3 2.7-1.4.2-2.1.3-4.2.2-6.3 1.6-1.7 2.9-3.6 4.1-5.6.8 1.5 1.5 3 2 4.6.9 2.7 2.3 5.3 3.1 8 .5 1.8 4.5.7 3.9-1-1-2.8-2.4-5.3-3.3-8.1zm21.3-2.9c0 1.9.1 3.8.1 5.7.1 1.3.5 4-.4 5.1-.5.6-1.5.9-2.3 1-.1 0-2 .2-1.6-.3.8-1 .4-3.3.4-4.5-.1-2.3-.2-4.6-.2-6.9-1.1.1-2.1.4-3.2.3-1.4-.1-3.7-.7-5.1-.1.1.8.1 1.6.1 2.4v8.3c0 1.1-3.9 1.6-3.9 1 0-3.5.1-7-.1-10.5-.1-3-.9-6.2-.4-9.2.5-2.7 2-4.7 4.6-5.7 2.3-.9 5.1-1.3 7.5-1.4 2.4-.1 3.8.8 4 3.2.2 2.7.3 5.4.4 8v1c.9-.1 2.1-.1 2.3.8.2 1-1.1 1.7-2.2 1.8zm-5.7-1.9c.6 0 1.1 0 1.7-.1-.1-2-.3-4-.3-6 0-1.2.3-4.1-.9-4.9-.9-.6-1.9-.4-2.8-.2-.7.1-1.8.1-2.4.4-2.2 1.4-2.4 4.7-2.3 7 .1 1.3.2 2.5.3 3.7 2.1-.3 4.4.1 6.7.1zM24.1 6.7c.5-.1 1-.2 1.5-.5l.2-.2c.5-.3 1-.8.7-1.4-.5-1.1-.4-2.2-.4-3.4 0-1-1-1.2-1.8-1.2-.7.1-2.2.6-2.2 1.5 0 1-.1 2 .1 3 0 .1-.1.2-.1.4-.1.2 0 .4.1.6v.4c.1.2.2.4.4.5.6.3 1.1.3 1.5.3z"/></symbol><symbol viewBox="0 0 27 34" id="logo-htmlacademy"><path d="M13.62.017L13.472 0 0 1.412v24.661l13.473 8.017 13.43-7.99.042-.025V1.412L13.62.017zm11.399 12.11L13.495 5.334l-.001-.104-.087.05-.088-.056v.109L1.925 12.118V3.147l11.548-1.212L25.02 3.147v8.98zm-11.614-5.34L24.923 13.5l-4.479 2.64-7.093-4.221-.014 1.415 5.904 3.513-.86.507-5.03-2.992-.014 1.415 3.827 2.275-.782.523-3.031-1.787-.014 1.413 1.853 1.091-1.8 1.081-11.356-6.751 11.371-6.835zm-11.48 8.34l11.411 6.791.016 1.044-7.942-4.728-.015 1.416 7.979 4.795.018 1.076-7.973-4.74-.013 1.414 8.021 4.822.046.025 8.143-4.872-.011-5.177 3.415-2.036v10.021L13.472 31.85 1.925 24.979v-9.852z"/></symbol></svg>